<svg width="32" height="33" viewBox="0 0 32 33" fill="none" xmlns="http://www.w3.org/2000/svg">
<path d="M16.125 12.6768C14.375 12.6768 12.9805 14.0986 12.9805 15.8213C12.9805 17.5713 14.375 18.9658 16.125 18.9658C17.8477 18.9658 19.2695 17.5713 19.2695 15.8213C19.2695 14.0986 17.8477 12.6768 16.125 12.6768ZM16.125 17.8721C15.0039 17.8721 14.0742 16.9697 14.0742 15.8213C14.0742 14.7002 14.9766 13.7979 16.125 13.7979C17.2461 13.7979 18.1484 14.7002 18.1484 15.8213C18.1484 16.9697 17.2461 17.8721 16.125 17.8721ZM20.1172 12.5674C20.1172 12.1572 19.7891 11.8291 19.3789 11.8291C18.9688 11.8291 18.6406 12.1572 18.6406 12.5674C18.6406 12.9775 18.9688 13.3057 19.3789 13.3057C19.7891 13.3057 20.1172 12.9775 20.1172 12.5674ZM22.1953 13.3057C22.1406 12.3213 21.9219 11.4463 21.2109 10.7354C20.5 10.0244 19.625 9.80566 18.6406 9.75098C17.6289 9.69629 14.5938 9.69629 13.582 9.75098C12.5977 9.80566 11.75 10.0244 11.0117 10.7354C10.3008 11.4463 10.082 12.3213 10.0273 13.3057C9.97266 14.3174 9.97266 17.3525 10.0273 18.3643C10.082 19.3486 10.3008 20.1963 11.0117 20.9346C11.75 21.6455 12.5977 21.8643 13.582 21.9189C14.5938 21.9736 17.6289 21.9736 18.6406 21.9189C19.625 21.8643 20.5 21.6455 21.2109 20.9346C21.9219 20.1963 22.1406 19.3486 22.1953 18.3643C22.25 17.3525 22.25 14.3174 22.1953 13.3057ZM20.8828 19.4307C20.6914 19.9775 20.2539 20.3877 19.7344 20.6064C18.9141 20.9346 17 20.8525 16.125 20.8525C15.2227 20.8525 13.3086 20.9346 12.5156 20.6064C11.9688 20.3877 11.5586 19.9775 11.3398 19.4307C11.0117 18.6377 11.0938 16.7236 11.0938 15.8213C11.0938 14.9463 11.0117 13.0322 11.3398 12.2119C11.5586 11.6924 11.9688 11.2822 12.5156 11.0635C13.3086 10.7354 15.2227 10.8174 16.125 10.8174C17 10.8174 18.9141 10.7354 19.7344 11.0635C20.2539 11.2549 20.6641 11.6924 20.8828 12.2119C21.2109 13.0322 21.1289 14.9463 21.1289 15.8213C21.1289 16.7236 21.2109 18.6377 20.8828 19.4307Z" fill="#0E0900"/>
<rect x="0.5" y="0.571289" width="31" height="31" rx="15.5" stroke="#0E0900"/>
</svg>
