<?xml version="1.0" encoding="utf-8"?>
<!-- Generator: Adobe Illustrator 26.3.1, SVG Export Plug-In . SVG Version: 6.00 Build 0)  -->
<svg version="1.1" id="Layer_1" xmlns="http://www.w3.org/2000/svg" xmlns:xlink="http://www.w3.org/1999/xlink" x="0px" y="0px"
	 viewBox="0 0 95 81" style="enable-background:new 0 0 95 81;" xml:space="preserve">
<style type="text/css">
	.st0{clip-path:url(#SVGID_00000143615980666448907070000014967314670945608355_);}
	.st1{fill:#FFFFFF;}
	.st2{fill:#FDB927;}
</style>
<g>
	<defs>
		<rect id="SVGID_1_" x="14.7" y="12.4" width="65.7" height="55.7"/>
	</defs>
	<clipPath id="SVGID_00000106127817613292463630000011013983058599284872_">
		<use xlink:href="#SVGID_1_"  style="overflow:visible;"/>
	</clipPath>
	<g style="clip-path:url(#SVGID_00000106127817613292463630000011013983058599284872_);">
		<path d="M74.8,26c0.1,0,0.2-0.1,0.2-0.2c0,0,0-0.1,0-0.1c0,0,0-0.1-0.1-0.1c0,0-0.1,0-0.1-0.1s-0.1,0-0.1,0
			c-0.1,0-0.2,0.1-0.2,0.2C74.6,25.9,74.6,26,74.8,26z M75.3,24.3L75.3,24.3L75.3,24.3L75.3,24.3z M70.9,20.6c0.1-0.1,0-0.2-0.1-0.2
			c-0.1,0-0.1,0.1-0.1,0.2C70.8,20.6,70.8,20.6,70.9,20.6z M75.4,27c0.1-0.1,0.1-0.1,0.1-0.2c0-0.2-0.2-0.2-0.3-0.2
			c-0.1,0-0.2,0.1-0.2,0.3C75,27,75.2,27.1,75.4,27z M75.6,26.1c0.1-0.1,0-0.2-0.1-0.1c0,0,0,0,0,0c0,0,0,0,0,0c0,0,0,0,0,0
			c0,0,0,0,0,0H75.6z M76,28.8c0.1,0.1,0.2,0.2,0.4,0.1c0.1-0.1,0.2-0.2,0.1-0.4c-0.1-0.1-0.2-0.2-0.4-0.1C76,28.5,76,28.7,76,28.8
			L76,28.8z M76.6,28v-0.2l-0.1,0c-0.1,0-0.1,0.1,0,0.2L76.6,28z M76.5,29.7c0.1,0.1,0.2,0.2,0.4,0.1c0.1-0.1,0.2-0.2,0.1-0.3
			c-0.1-0.1-0.2-0.2-0.4-0.1C76.6,29.5,76.4,29.6,76.5,29.7L76.5,29.7z M76.3,26.2L76.3,26.2L76.3,26.2L76.3,26.2z M74.6,24.1
			L74.6,24.1L74.6,24.1L74.6,24.1L74.6,24.1z M75.5,27.8c0.1,0.1,0.2,0.2,0.4,0.1c0.1-0.1,0.2-0.2,0.1-0.3c-0.1-0.1-0.2-0.2-0.4-0.1
			C75.6,27.6,75.5,27.7,75.5,27.8L75.5,27.8z M76.8,27.2L76.8,27.2L76.8,27.2L76.8,27.2z M76,27.1c0.1,0.1,0.2,0,0.2-0.1
			c0,0-0.1-0.1-0.2-0.1C75.9,26.9,75.9,27.1,76,27.1L76,27.1z M75.8,25.3L75.8,25.3L75.8,25.3L75.8,25.3z M72,21.8
			c0.1,0.1,0.2,0,0.2-0.1c0-0.1-0.1-0.1-0.2-0.1C71.9,21.7,71.9,21.8,72,21.8L72,21.8z M72.3,21L72.3,21L72.3,21L72.3,21z
			 M71.5,22.5c0.1,0.1,0.2,0.2,0.4,0.2c0.1-0.1,0.2-0.2,0.2-0.3c-0.1-0.1-0.2-0.2-0.4-0.2C71.6,22.2,71.5,22.3,71.5,22.5z M71,19.8
			L71,19.8L71,19.8L71,19.8z M72.6,22.8c0.1,0,0.2-0.1,0.1-0.2c0-0.1-0.1-0.2-0.2-0.1c-0.1,0-0.1,0.1-0.1,0.2
			C72.4,22.8,72.5,22.9,72.6,22.8L72.6,22.8z M71.3,21.7c0.1-0.1,0.2-0.1,0.1-0.2c0-0.1-0.1-0.2-0.3-0.2c-0.1,0-0.1,0.1-0.1,0.2
			C71.1,21.6,71.2,21.7,71.3,21.7L71.3,21.7z M71.6,20.7L71.6,20.7L71.6,20.7L71.6,20.7L71.6,20.7z M72.8,23.7
			c0,0.1,0.1,0.2,0.3,0.2c0.1,0,0.2-0.1,0.2-0.3c0-0.1-0.1-0.2-0.3-0.2C72.8,23.4,72.7,23.5,72.8,23.7L72.8,23.7z M73.8,24
			c0,0,0.1,0,0.1-0.2c0,0-0.1-0.1-0.2-0.1c-0.1,0.1-0.1,0.1-0.1,0.2C73.7,24,73.7,24,73.8,24L73.8,24z M73.5,22.2L73.5,22.2
			L73.5,22.2L73.5,22.2z M74,23.1L74,23.1L74,23.1L74,23.1z M73.3,22.9l-0.1,0l0,0.1L73.3,22.9L73.3,22.9z M72.8,22L72.8,22L72.8,22
			L72.8,22z M74.4,25c0.1-0.1,0.1-0.1,0.1-0.2c-0.1-0.1-0.1-0.1-0.2-0.1c-0.1,0.1-0.1,0.1-0.1,0.2C74.2,25,74.2,25,74.4,25L74.4,25z
			 M75.1,25.1L75.1,25.1l-0.1,0L75.1,25.1L75.1,25.1z M79.1,39.2c0,0.1,0.1,0.2,0.2,0.3c0.1,0,0.3-0.1,0.3-0.2
			c0-0.2-0.1-0.2-0.3-0.3C79.2,39,79.1,39.1,79.1,39.2L79.1,39.2z M78.8,37.6c0.1,0.1,0.2,0.3,0.4,0.2c0.1-0.1,0.2-0.1,0.1-0.3
			c-0.1-0.1-0.2-0.2-0.4-0.2C78.9,37.4,78.7,37.5,78.8,37.6L78.8,37.6z M79.5,33.7L79.5,33.7L79.5,33.7L79.5,33.7z M79.6,36.1
			l-0.1,0l0,0.1l0.1,0L79.6,36.1z M79.3,34.4L79.3,34.4L79.3,34.4L79.3,34.4L79.3,34.4z M78.6,36c0.1,0.1,0.2,0.2,0.4,0.1
			c0.1-0.1,0.2-0.2,0.1-0.3c-0.1-0.1-0.2-0.2-0.4-0.1C78.6,35.7,78.5,35.8,78.6,36L78.6,36z M80.1,37.1L80.1,37.1L80.1,37.1
			L80.1,37.1z M79.8,35.4L79.8,35.4L79.8,35.4L79.8,35.4z M79.9,37.8L79.9,37.8l-0.1,0.1l0.1,0L79.9,37.8z M79.3,37
			c0.1,0,0.1-0.1,0.2-0.2c0-0.1-0.1-0.2-0.2-0.2c-0.1,0.1-0.1,0.1-0.1,0.2C79.2,36.9,79.2,37,79.3,37L79.3,37z M78.7,34.4
			c0.1-0.1,0.2-0.2,0.1-0.3c0,0-0.1-0.1-0.1-0.1c-0.1,0-0.1,0-0.2,0c-0.1,0-0.1,0.1-0.1,0.1c0,0.1,0,0.1,0,0.2
			c0,0.1,0.1,0.1,0.1,0.1C78.5,34.4,78.6,34.4,78.7,34.4z M79.4,38.6c0.1,0.1,0.1,0.1,0.2,0.1c0.1-0.1,0.1-0.1,0.1-0.2
			c-0.1-0.1-0.1-0.1-0.2-0.1C79.5,38.4,79.4,38.5,79.4,38.6z M77.9,33c-0.1,0.1-0.2,0.2-0.2,0.4c0.1,0.1,0.2,0.2,0.4,0.2
			c0.2,0,0.2-0.2,0.2-0.4C78.3,33,78.1,32.9,77.9,33L77.9,33z M77.1,29v-0.2l-0.1,0c-0.1,0,0,0.1,0,0.2L77.1,29z M77.5,29.9
			c0.1,0.1,0.2,0,0.2-0.1c0-0.1-0.1-0.1-0.2-0.1C77.4,29.8,77.4,29.9,77.5,29.9L77.5,29.9z M77.8,31.7c0.1,0,0.2-0.2,0.2-0.3
			c-0.1-0.1-0.1-0.1-0.2-0.1c-0.1,0-0.1,0.1-0.1,0.2C77.6,31.7,77.7,31.7,77.8,31.7L77.8,31.7z M77.8,29.1L77.8,29.1L77.8,29.1
			L77.8,29.1z M79,32.7L79,32.7L79,32.7L79,32.7z M77.3,28.2L77.3,28.2L77.3,28.2L77.3,28.2z M78.1,30.9c0.1-0.1,0-0.1-0.1-0.1
			c0,0-0.1,0.1,0,0.1H78.1z M77,30.7c0.1,0.1,0.2,0.2,0.3,0.1c0.1-0.1,0.2-0.2,0.1-0.3c-0.1-0.1-0.2-0.2-0.3-0.1
			C77.1,30.4,77,30.6,77,30.7L77,30.7z M78.9,33.5v-0.2l-0.1,0c-0.1,0-0.1,0.1,0,0.2H78.9z M78.8,31.1L78.8,31.1L78.8,31.1
			L78.8,31.1z M79.2,35.1c0-0.1-0.1-0.2-0.2-0.1c-0.1,0-0.1,0.2-0.1,0.2C79,35.3,79.2,35.3,79.2,35.1L79.2,35.1z M78.6,31.7
			L78.6,31.7L78.6,31.7L78.6,31.7L78.6,31.7z M78.3,32.7c0.1,0,0.2-0.1,0.2-0.2c0-0.1-0.1-0.1-0.2-0.2c-0.1,0.1-0.1,0.1-0.1,0.2
			C78.1,32.6,78.2,32.7,78.3,32.7L78.3,32.7z M78.3,30.1L78.3,30.1L78.3,30.1L78.3,30.1z M56.9,12.9L56.9,12.9L56.9,12.9L56.9,12.9z
			 M57.4,14c0.1,0,0.1-0.1,0.2-0.2c0-0.1-0.1-0.2-0.2-0.2c-0.1,0.1-0.1,0.1-0.1,0.2C57.2,14,57.3,14,57.4,14L57.4,14z M56.8,13.7
			c0-0.1-0.1-0.2-0.2-0.1c-0.1,0.1-0.1,0.2,0,0.2C56.7,13.9,56.8,13.8,56.8,13.7L56.8,13.7z M57.6,13.2L57.6,13.2L57.6,13.2
			L57.6,13.2z M56,13.5c0.1-0.1,0-0.2-0.1-0.2c-0.1,0-0.1,0.1-0.1,0.2H56z M58.1,14.3c0,0,0.1,0,0.1-0.1c0,0,0.1-0.1,0.1-0.1
			c0-0.1-0.1-0.2-0.2-0.2c0,0-0.1,0-0.1,0.1c0,0-0.1,0.1-0.1,0.1c0,0,0,0.1,0.1,0.1C58,14.3,58.1,14.3,58.1,14.3L58.1,14.3z
			 M55.2,13.2c0.1-0.1,0-0.1-0.1-0.1c-0.1,0-0.1,0.1,0,0.1H55.2z M58.4,13.4L58.4,13.4L58.4,13.4L58.4,13.4z M59.6,14.8
			c0.1,0,0.1,0,0.1-0.1c0,0,0.1-0.1,0.1-0.1c0-0.1,0-0.1-0.1-0.1c0,0-0.1-0.1-0.1-0.1c-0.1,0-0.2,0.1-0.2,0.2
			C59.4,14.7,59.5,14.8,59.6,14.8z M54.4,12.9L54.4,12.9L54.4,12.9L54.4,12.9L54.4,12.9z M60.4,15c0.1,0,0.2-0.1,0.1-0.2
			c0-0.1-0.1-0.2-0.3-0.2c-0.1,0.1-0.1,0.1-0.1,0.2C60.2,15,60.3,15,60.4,15L60.4,15z M59.9,13.9L59.9,13.9L59.9,13.9L59.9,13.9z
			 M59.1,13.6L59.1,13.6L59.1,13.6L59.1,13.6z M58.9,14.6c0.1,0,0.2-0.1,0.1-0.2c0-0.1-0.1-0.2-0.3-0.2c-0.1,0-0.1,0.1-0.1,0.2
			C58.7,14.5,58.8,14.6,58.9,14.6L58.9,14.6z M79.8,40.1c-0.1,0-0.1,0.2,0,0.2c0.1,0.1,0.2,0,0.2-0.1C79.9,40.1,79.8,40.1,79.8,40.1
			L79.8,40.1z M60.6,14.1L60.6,14.1L60.6,14.1L60.6,14.1z M80,39.5L80,39.5L80,39.5L80,39.5L80,39.5z M80.3,38.7L80.3,38.7
			L80.3,38.7L80.3,38.7z M51.2,12.7L51.2,12.7L51.2,12.7L51.2,12.7z M54.3,13.9c0.1-0.1,0.2-0.1,0.2-0.3c-0.1-0.1-0.1-0.2-0.3-0.2
			c-0.1,0.1-0.2,0.1-0.2,0.3C54,13.8,54.1,14,54.3,13.9L54.3,13.9z M79.5,40.8c-0.1,0-0.1,0.2-0.1,0.2c0,0,0.3,0.1,0.3,0
			c0,0,0,0,0-0.1c0,0,0,0,0-0.1C79.7,40.8,79.6,40.7,79.5,40.8L79.5,40.8z M79.3,39.7c-0.1-0.1-0.4,0-0.4,0.1c0-0.1-0.1-0.3-0.1-0.3
			l0.2-0.2c0.1-0.2,0-0.4-0.2-0.6c0.2,0,0.3-0.1,0.4-0.2c0.1-0.1,0.1-0.4-0.1-0.4c-0.1-0.1-0.3-0.1-0.5,0c0-0.1-0.1-0.2-0.1-0.3
			c0.2,0,0.3-0.2,0.3-0.4c0-0.2-0.1-0.3-0.2-0.4c0.1,0,0.2,0,0.2-0.1c0.1-0.1,0.2-0.2,0.1-0.3c0-0.1-0.1-0.3-0.2-0.3
			c-0.1-0.1-0.3,0-0.4,0L78.2,36c0.1,0,0.2-0.1,0.2-0.2c0.1-0.2,0-0.4-0.2-0.5c0.2,0,0.3-0.1,0.4-0.2c0.1-0.2,0-0.3-0.1-0.4
			c-0.1-0.1-0.4-0.1-0.5,0c0-0.1-0.1-0.2-0.1-0.3c0.1,0,0.2-0.1,0.3-0.2c0.1-0.2,0-0.4-0.1-0.5c-0.1-0.1-0.3-0.1-0.4,0l-0.1-0.2
			c0-0.1,0.2-0.2,0.2-0.3c0.1-0.2-0.1-0.4-0.2-0.5c0.2,0,0.2-0.1,0.3-0.2c0.1-0.2,0-0.4-0.1-0.5c-0.1-0.1-0.3,0-0.4,0
			c0-0.1-0.1-0.3-0.2-0.4c0.1,0,0.2-0.1,0.2-0.1c0.1-0.1,0.1-0.4,0-0.5c-0.1-0.1-0.4-0.2-0.5-0.1c-0.1-0.1-0.1-0.2-0.1-0.3l0.2-0.2
			c0.1-0.2,0-0.4-0.1-0.5c-0.1-0.1-0.4-0.1-0.5,0l-0.1-0.3c0.1,0,0.2-0.1,0.2-0.2c0.1-0.2,0.1-0.4-0.1-0.5c-0.1-0.1-0.4-0.1-0.5,0
			c0-0.1-0.1-0.2-0.1-0.2c0.1-0.1,0.3-0.2,0.2-0.4c0-0.2-0.1-0.3-0.2-0.3c-0.1,0-0.3,0-0.4,0c0-0.1-0.1-0.2-0.1-0.2l0.2-0.2
			c0.1-0.2,0-0.4-0.1-0.5c-0.1-0.1-0.4-0.2-0.5-0.1c0-0.1-0.1-0.2-0.1-0.3l0.2-0.2c0.1-0.2,0-0.4-0.1-0.5c-0.1-0.1-0.4,0-0.5,0
			c0-0.1-0.1-0.2-0.2-0.3c0.1,0,0.2-0.1,0.2-0.1c0.1-0.2,0-0.4-0.1-0.5c-0.1-0.1-0.4-0.1-0.5,0c0-0.2-0.1-0.3-0.2-0.4l0.2,0
			c0.1,0,0.1-0.1,0.2-0.2c0-0.1,0-0.2,0-0.2c-0.1-0.1-0.2-0.2-0.4-0.2c-0.1,0.1-0.2,0.2-0.2,0.4c0,0.1,0.2,0.1,0.1,0.2
			c-0.1-0.1-0.2,0-0.3,0L73,24.7l0.1-0.1c0.1-0.1,0.2-0.3,0.1-0.4c0-0.1-0.1-0.1-0.1-0.2C73,24,72.9,24,72.8,24
			c-0.1,0-0.2,0-0.3,0.1c0-0.1-0.1-0.2-0.1-0.2l0.2-0.2c0.1-0.2,0-0.4-0.2-0.5c-0.2-0.1-0.4,0-0.5,0.1c0-0.2-0.1-0.3-0.2-0.4
			c-0.1-0.1-0.4-0.1-0.5,0l-0.1-0.2h0c0.2-0.1,0.3-0.3,0.2-0.5c-0.1-0.1-0.2-0.3-0.4-0.2c-0.1,0-0.1,0.1-0.2,0.1
			c0-0.2-0.2-0.3-0.3-0.4c0.2,0,0.2,0,0.3-0.1c0.1-0.1,0-0.3-0.1-0.4c-0.1-0.1-0.4-0.1-0.4,0.1c-0.1,0.2,0,0.4,0.1,0.5
			c-0.1,0-0.2,0-0.3,0c0-0.1,0-0.1-0.1-0.2l0.2-0.2c0.1-0.2,0-0.5-0.2-0.5c-0.2-0.1-0.4,0-0.5,0.1c0-0.2-0.1-0.3-0.2-0.4
			c-0.1-0.1-0.4-0.1-0.5,0c0-0.1-0.1-0.2-0.1-0.2c0.1,0,0.1-0.1,0.2-0.1c0.1-0.2,0-0.4-0.1-0.5c-0.2-0.1-0.4,0-0.5,0.2
			c0.1-0.2,0-0.4-0.2-0.4c-0.1-0.1-0.4,0-0.5,0c0-0.2-0.2-0.3-0.3-0.3c0.2,0,0.2-0.1,0.3-0.2c0.1-0.1,0-0.3-0.1-0.4
			c-0.1-0.1-0.4,0-0.4,0.1c-0.1,0.2,0,0.3,0.1,0.4c-0.1,0-0.3,0-0.4,0.1l-0.2-0.2c0.1,0,0.2-0.1,0.2-0.2c0.1-0.2-0.1-0.4-0.2-0.5
			c-0.2-0.1-0.4,0.1-0.5,0.2c0,0.1,0,0.3,0.1,0.4l-0.2,0.1c0-0.1-0.1-0.1-0.1-0.2c0.1-0.1,0.2-0.2,0.2-0.3c0-0.2-0.1-0.3-0.2-0.4
			c-0.2-0.1-0.4,0-0.5,0.1c0-0.2-0.1-0.3-0.3-0.4c-0.1,0-0.3,0-0.4,0.1c0-0.1-0.2-0.3-0.3-0.3c0.2,0,0.3-0.1,0.3-0.2
			c0.1-0.1,0-0.3-0.1-0.4c-0.2-0.1-0.4,0-0.4,0.1c-0.1,0.2,0.1,0.3,0.1,0.4c-0.1,0-0.3,0-0.4,0.1c0-0.1-0.1-0.2-0.2-0.2
			c0.1,0,0.2-0.1,0.3-0.2c0-0.1,0-0.2,0-0.2s-0.1-0.1-0.1-0.2c-0.1-0.1-0.4,0-0.4,0.1c-0.1,0.1-0.1,0.3,0,0.4c-0.1,0-0.2,0-0.3,0.1
			l-0.1-0.2c0.1,0,0.1-0.1,0.2-0.2c0.1-0.2,0-0.4-0.1-0.5c-0.2-0.1-0.4,0-0.5,0.1c-0.1,0.1,0,0.3,0,0.4c-0.1,0-0.2,0-0.2,0.1
			c-0.3-0.3,0.2-0.2,0.1-0.6c0-0.2-0.2-0.3-0.4-0.3c-0.2,0-0.3,0.1-0.4,0.2c0-0.2-0.1-0.3-0.2-0.4c-0.2-0.1-0.4,0-0.5,0.1
			c0-0.2-0.1-0.3-0.2-0.4c-0.2-0.1-0.4,0-0.5,0.1c0-0.2-0.1-0.3-0.2-0.4c-0.2-0.1-0.4,0-0.5,0.1c0-0.2-0.1-0.3-0.2-0.4
			c-0.2-0.1-0.4,0-0.5,0.1l0-0.1c-0.1-0.1-0.2-0.3-0.4-0.3c-0.2,0-0.3,0.1-0.4,0.2c0-0.2-0.1-0.3-0.2-0.4c-0.2-0.1-0.4,0-0.5,0.2
			c0-0.2-0.1-0.3-0.2-0.4c-0.2-0.1-0.4,0-0.5,0.1c-0.1,0.1-0.1,0.3,0,0.4l-0.2,0.1l-0.1-0.2c0.1-0.1,0.2-0.1,0.2-0.1
			c0.1-0.1,0.1-0.3,0-0.4c-0.1-0.1-0.2-0.2-0.3-0.2c-0.1,0-0.3,0.1-0.3,0.2c-0.1,0.1-0.1,0.3,0,0.4l-0.2,0.1l-0.2-0.2l0.2-0.1
			c0.1-0.1,0.1-0.4,0-0.5c-0.1-0.1-0.4-0.1-0.5,0c-0.1,0.1-0.1,0.3,0,0.5c-0.1,0-0.2,0.1-0.2,0.1c-0.1-0.1-0.2-0.2-0.3-0.3
			c0.2,0.1,0.2-0.1,0.3-0.1c0.1-0.1,0-0.3-0.1-0.4c-0.1-0.1-0.4,0-0.4,0.1c-0.1,0.1,0,0.3,0.1,0.4c-0.2,0-0.3,0-0.4,0.1
			c0-0.1-0.1-0.1-0.1-0.2c-0.1-0.1-0.1-0.1-0.2-0.1c-0.2,0-0.4,0-0.5,0.1l0-0.1c-0.1-0.2-0.3-0.3-0.5-0.2c-0.1,0-0.2,0.2-0.2,0.2
			c0-0.2-0.1-0.3-0.2-0.4c-0.2-0.1-0.4,0-0.5,0.1c-0.1,0.1,0,0.3,0,0.4l-0.3,0.1c0-0.1-0.2-0.2-0.2-0.3h0.2c0.1-0.1,0.2-0.2,0.2-0.4
			c0-0.2-0.5-0.3-0.6-0.1c-0.1,0.2,0,0.4,0.1,0.4c-0.1,0-0.3,0-0.4,0.1v-0.3c-2.5,0-5,0.3-7.4,1c-10.2,2.7-17.9,10.7-20,21
			c-0.8,3.8-0.6,8.7,0.4,12.2c1.6,5.8,4.9,10.6,9.6,14.2c5.3,4,12.1,6.6,20.6,5.7c9-1.1,15.8-5.7,20.3-12.4
			c2.6-4.1,4.4-8.8,4.4-14.6l0.1-0.1c0.1-0.2,0-0.4-0.1-0.5c-0.1-0.1-0.3-0.1-0.4,0l-0.1-0.2l0.2-0.2c0,0.1,0.1,0.2,0.1,0.2
			c0.2,0.1,0.4,0,0.5-0.1c0-0.1,0.1-0.2,0-0.2C79.4,39.8,79.3,39.8,79.3,39.7L79.3,39.7z M52.7,14.4l-0.1-0.1c0.1,0,0.2-0.1,0.2-0.2
			c0,0,0,0,0,0c0,0,0,0,0,0c0,0,0,0.1,0,0.1C52.8,14.2,52.9,14.4,52.7,14.4L52.7,14.4z M53.4,14.5l0.1-0.1l0,0.2
			C53.5,14.6,53.4,14.6,53.4,14.5L53.4,14.5z M54.1,14.8L54.1,14.8l0.1,0.1C54.2,14.9,54.2,14.8,54.1,14.8L54.1,14.8z M54.9,15.1
			C54.9,15,55,15.1,54.9,15.1L54.9,15.1z M55.7,15.3L55.7,15.3L55.7,15.3L55.7,15.3z M56.4,15.6L56.4,15.6L56.4,15.6L56.4,15.6
			L56.4,15.6z M57.3,15c0.1-0.1,0.2-0.1,0.2-0.2c0,0.1,0,0.2,0.1,0.3C57.5,15,57.3,15.1,57.3,15L57.3,15z M58.1,15.2
			c0-0.1,0.1-0.1,0.1-0.2l0.1,0.2C58.2,15.3,58.1,15.3,58.1,15.2L58.1,15.2z M58.8,15.5l0.1-0.2l0.1,0.2
			C58.9,15.5,58.9,15.6,58.8,15.5L58.8,15.5z M59.6,15.7l0.1-0.2l0.1,0.2C59.7,15.7,59.6,15.8,59.6,15.7L59.6,15.7z M60.3,15.9
			l0.1-0.2l0.1,0.2C60.4,16,60.4,16,60.3,15.9L60.3,15.9z M61.1,16.2l0.2-0.2l0.1,0.2C61.2,16.2,61.1,16.3,61.1,16.2L61.1,16.2z
			 M61.8,16.4L61.8,16.4l0.2-0.3c0,0.1,0,0.2,0,0.3C61.9,16.5,61.8,16.5,61.8,16.4L61.8,16.4z M62.4,17.4L62.4,17.4L62.4,17.4
			L62.4,17.4L62.4,17.4z M62.5,19.4c0-0.1,0-0.2-0.1-0.2c0.1,0,0.2-0.1,0.2,0L62.5,19.4z M63.8,17.9L63.8,17.9L63.8,17.9
			C63.9,17.9,63.8,17.9,63.8,17.9L63.8,17.9z M64.6,18.1C64.6,18.1,64.6,18.1,64.6,18.1h0.1H64.6z M65.3,18.3c0.1,0,0.1-0.1,0.2-0.1
			l0,0.2C65.4,18.4,65.3,18.4,65.3,18.3L65.3,18.3z M66,21.2c0,0-0.1-0.1,0-0.1l0.1,0.1L66,21.2z M66.6,19.6L66.6,19.6L66.6,19.6
			L66.6,19.6z M67.2,22.5c0-0.1,0-0.2-0.1-0.2l0.1-0.1C67.5,22.4,67.3,22.4,67.2,22.5L67.2,22.5z M67.3,19.8L67.3,19.8l0.2,0
			C67.4,19.8,67.3,19.8,67.3,19.8z M68.4,23.8c0-0.1,0-0.3-0.1-0.3c0.2-0.1,0.2-0.1,0.3,0.1L68.4,23.8z M68.6,21
			C68.6,21,68.6,21,68.6,21C68.6,21,68.6,21,68.6,21L68.6,21z M69.3,21.2l0.1-0.1l0.1,0.2C69.3,21.3,69.3,21.3,69.3,21.2L69.3,21.2z
			 M69.9,22.2L69.9,22.2L69.9,22.2L69.9,22.2z M70.5,22.4l0.1-0.1l0.1,0.2C70.6,22.4,70.5,22.6,70.5,22.4L70.5,22.4z M71.1,23.4
			L71.1,23.4L71.1,23.4C71.1,23.4,71.1,23.4,71.1,23.4L71.1,23.4z M71.8,23.6l0.1-0.1l0.1,0.2C71.8,23.7,71.8,23.7,71.8,23.6
			L71.8,23.6z M72.3,24.6c0-0.1,0.1-0.1,0.1-0.1l0,0.1C72.4,24.6,72.4,24.6,72.3,24.6L72.3,24.6z M72.8,25.6L72.8,25.6L72.8,25.6
			L72.8,25.6z M73.5,24.9L73.5,24.9L73.5,24.9L73.5,24.9L73.5,24.9z M73.6,25.9c-0.1-0.1,0-0.1,0.1-0.2l0.1,0.2L73.6,25.9z M74,26.7
			c0.1,0,0.1-0.1,0.1-0.1l0,0.1C74.1,26.8,74.1,26.8,74,26.7L74,26.7z M74.6,27.7c-0.1-0.1,0.1-0.1,0.1-0.2l0.1,0.1L74.6,27.7z
			 M75.1,28.7c-0.1-0.1,0.1-0.1,0.1-0.1l0.1,0.1L75.1,28.7z M75.6,29.7c0-0.1,0.1-0.1,0.1-0.1l0.1,0.1L75.6,29.7z M76.2,30.6l-0.1,0
			c-0.1-0.1,0-0.1,0.1-0.1C76.2,30.5,76.2,30.5,76.2,30.6L76.2,30.6z M76.6,31.6c-0.1-0.1,0.1-0.1,0.1-0.2l0.1,0.1L76.6,31.6z
			 M76.9,33.2L76.9,33.2L76.9,33.2L76.9,33.2z M77,32.5c0.1-0.1,0.1-0.1,0.2-0.1c0,0.1,0.1,0.2,0.2,0.2C77.2,32.5,77,32.7,77,32.5
			L77,32.5z M77.3,34.3c-0.1-0.1,0.1-0.1,0.1-0.1c0.1,0,0.1,0.1,0.1,0.1L77.3,34.3z M77.6,35.9L77.6,35.9l0.1-0.1
			C77.7,35.9,77.7,35.9,77.6,35.9C77.7,35.9,77.7,35.9,77.6,35.9C77.7,35.9,77.6,35.9,77.6,35.9C77.6,35.9,77.6,35.9,77.6,35.9
			L77.6,35.9z M77.9,35c0,0.1,0.1,0.2,0.2,0.2l-0.3,0.1C77.8,35.1,77.8,35.1,77.9,35L77.9,35z M77.9,40L77.9,40L77.9,40L77.9,40z
			 M77.9,37.6L77.9,37.6L77.9,37.6L77.9,37.6z M78.1,39.3c0-0.1,0.1-0.2,0.1,0C78.2,39.3,78.2,39.3,78.1,39.3L78.1,39.3z M78.1,36.9
			c-0.1-0.1,0.1-0.1,0.1-0.2c0.1,0,0.1,0.2,0.1,0.2L78.1,36.9z M78.4,40.9l0.1-0.1c0,0,0.1,0.1,0.1,0.1H78.4z M78.4,38.6l-0.1-0.2
			c0.1,0,0.1-0.1,0.1-0.1c0,0.1,0.1,0.1,0.1,0.2L78.4,38.6z M78.7,38.6L78.7,38.6L78.7,38.6L78.7,38.6L78.7,38.6z M53.4,13.6
			c0.1,0,0.2-0.1,0.2-0.2c0-0.1,0-0.1-0.1-0.1c0,0-0.1-0.1-0.2-0.1c-0.1,0-0.1,0.1-0.2,0.2C53.3,13.5,53.3,13.6,53.4,13.6L53.4,13.6
			z M53.7,12.7L53.7,12.7L53.7,12.7L53.7,12.7z M52.9,12.5L52.9,12.5L52.9,12.5L52.9,12.5z M52,13c0.1-0.1,0-0.2-0.1-0.1
			c-0.1,0-0.1,0.1,0,0.1H52z M52.8,13.2c0-0.1-0.1-0.2-0.2-0.1c0,0,0,0,0,0.1c0,0,0,0,0,0.1c0,0,0,0,0,0.1c0,0,0,0,0,0.1
			C52.7,13.4,52.8,13.3,52.8,13.2L52.8,13.2z M68.1,19.1c0.1,0,0.2-0.1,0.1-0.3c-0.1-0.1-0.1-0.2-0.3-0.1c-0.1,0.1-0.2,0.1-0.1,0.3
			C67.9,19,68,19.1,68.1,19.1z M67.8,17.2L67.8,17.2L67.8,17.2L67.8,17.2z M68.3,18.1L68.3,18.1L68.3,18.1L68.3,18.1L68.3,18.1z
			 M67.6,18c0.1-0.1,0-0.2-0.1-0.1c0,0,0,0,0,0.1s0,0.1,0,0.1H67.6z M70.3,19.6L70.3,19.6L70.3,19.6L70.3,19.6z M66.3,16.7
			L66.3,16.7L66.3,16.7L66.3,16.7z M66.9,17.8c0.1-0.1,0-0.2-0.1-0.2c-0.1,0-0.2,0.1-0.1,0.2C66.8,17.8,66.8,17.8,66.9,17.8
			L66.9,17.8z M61.3,15c-0.1-0.1-0.1-0.1-0.3-0.1c-0.1,0.1-0.1,0.1-0.1,0.3c0.1,0.1,0.1,0.1,0.3,0.1C61.2,15.2,61.3,15.1,61.3,15z
			 M69.8,18.6L69.8,18.6L69.8,18.6L69.8,18.6z M68.9,19.1c0-0.1-0.1-0.2-0.2-0.1c0,0,0,0,0,0.1c0,0,0,0,0,0.1c0,0,0,0,0,0.1
			c0,0,0,0,0,0.1C68.8,19.3,68.9,19.2,68.9,19.1z M69.6,19.4c0.1-0.1,0-0.1-0.1-0.1c0,0-0.1,0.1,0,0.1H69.6z M66.1,17.6
			c0.1-0.1,0.2-0.1,0.1-0.2c-0.1-0.1-0.1-0.2-0.2-0.1c-0.1,0.1-0.2,0.1-0.1,0.2C65.9,17.6,66,17.7,66.1,17.6L66.1,17.6z M69,18.4
			L69,18.4L69,18.4L69,18.4z M69,20.1c0.1,0.1,0.2,0.3,0.4,0.2c0.1-0.1,0.2-0.1,0.1-0.3c-0.1-0.1-0.2-0.3-0.4-0.2
			C69.1,19.9,69,20,69,20.1L69,20.1z M70.1,20.5c0.1-0.1,0.2-0.1,0.1-0.2c-0.1-0.1-0.1-0.2-0.2-0.1c-0.1,0.1-0.2,0.1-0.1,0.2
			C69.9,20.4,70,20.5,70.1,20.5L70.1,20.5z M62.6,15.7c0.1,0,0.2-0.1,0.2-0.2c0-0.1-0.1-0.1-0.2-0.2c-0.1,0.1-0.1,0.1-0.1,0.2
			C62.4,15.6,62.5,15.7,62.6,15.7z M62.1,14.6L62.1,14.6L62.1,14.6L62.1,14.6z M62.8,14.8L62.8,14.8L62.8,14.8L62.8,14.8z
			 M61.9,15.5c0.1-0.1,0.1-0.1,0.1-0.2c-0.1-0.1-0.1-0.1-0.2-0.1c-0.1,0.1-0.1,0.1-0.1,0.2C61.7,15.4,61.8,15.5,61.9,15.5L61.9,15.5
			z M61.4,14.3L61.4,14.3L61.4,14.3L61.4,14.3z M63.4,15.9c0,0,0.1-0.1,0.1-0.2c0-0.1-0.1-0.1-0.2-0.1c0,0-0.1,0.1-0.1,0.2
			C63.2,15.8,63.3,15.9,63.4,15.9L63.4,15.9z M63.6,15L63.6,15L63.6,15L63.6,15z M64.9,16.3c0.1-0.1,0-0.1-0.1-0.1c0,0,0,0,0,0
			c0,0,0,0,0,0c0,0,0,0,0,0c0,0,0,0,0,0H64.9z M65.3,17.4c0.1,0,0.1,0,0.2-0.1s0.1-0.1,0.1-0.2c0-0.1-0.1-0.1-0.1-0.2
			c-0.1,0-0.1-0.1-0.2,0c-0.1,0-0.2,0.1-0.2,0.2C65.1,17.3,65.2,17.4,65.3,17.4z M64.3,15.3L64.3,15.3L64.3,15.3L64.3,15.3z
			 M65.6,16.4L65.6,16.4L65.6,16.4L65.6,16.4L65.6,16.4z M64,16.1c0.1,0.1,0.2,0,0.2-0.1c0-0.1-0.1-0.1-0.2-0.1
			C64,15.9,64,16.1,64,16.1z"/>
		<path class="st1" d="M52.9,16.1L52.9,16.1L52.9,16.1z"/>
		<path class="st1" d="M53.8,16.4L53.8,16.4l-0.1-0.1C53.7,16.3,53.7,16.4,53.8,16.4z"/>
		<path class="st1" d="M51.2,16.5v-0.2V16.5L51.2,16.5z"/>
		<path class="st1" d="M52.1,16.7c-0.1,0-0.2,0.1-0.3,0.2c-0.1,0.2,0.1,0.4,0.2,0.5c0.2,0.1,0.4-0.1,0.5-0.2c0-0.1,0-0.3-0.1-0.3
			c0.2,0,0.3-0.2,0.4,0L53,17c-0.2,0-0.2,0.1-0.3,0.2c0,0.2,0,0.3,0.2,0.4c0.2,0,0.4,0,0.4-0.2c0.1-0.2,0-0.3-0.1-0.4
			c0.1,0,0.3,0,0.4-0.1c0.1,0.2,0.2,0.3,0.4,0.3c0.1,0,0.2,0,0.3-0.1c0.1,0.2,0.2,0.3,0.4,0.3c0.2,0,0.3-0.1,0.4-0.2
			c0,0.1,0,0.3,0.2,0.3c0.1,0,0.2,0.1,0.4,0c0.1-0.1,0.2-0.2,0.2-0.3c0,0,0-0.1,0-0.1c0,0,0-0.1,0-0.1L56,17l0.1,0.2
			c-0.1,0.1-0.2,0.1-0.2,0.3c0,0.2,0.1,0.3,0.2,0.4c0.2,0.1,0.4-0.1,0.5-0.2c0.1-0.1,0-0.3,0-0.4l0.2-0.1l0.2,0.2
			c-0.1,0.1-0.3,0.1-0.3,0.3c0,0.2,0.1,0.3,0.2,0.4c0.2,0.1,0.4,0,0.5-0.2c0-0.1,0-0.3-0.1-0.3l0.2-0.1c0.1,0.1,0.1,0.2,0.2,0.2
			c-0.1,0-0.2,0.1-0.3,0.2c0,0.2,0,0.4,0.2,0.4c0.1,0.1,0.3,0,0.4-0.1C58,18.1,58,18.1,58,18c0-0.1,0-0.2-0.1-0.2
			c0.1-0.1,0.2,0,0.3-0.1c0.1,0.1,0.1,0.2,0.2,0.2c-0.1,0-0.2,0.1-0.3,0.2c-0.1,0.2,0,0.4,0.2,0.5c0.2,0.1,0.4,0,0.5-0.2
			c0-0.1,0-0.3-0.1-0.4l0.3-0.1c0,0.1,0.1,0.1,0.2,0.2c-0.1,0-0.2,0.1-0.3,0.2c0,0.1,0,0.2,0,0.3c0,0.1,0.1,0.1,0.2,0.2
			c0.2,0,0.4-0.1,0.4-0.2c0.1-0.1,0-0.2-0.1-0.3l0.3-0.1c0,0.1,0.1,0.2,0.2,0.2c-0.2,0-0.3,0.2-0.3,0.4c0,0.2,0.2,0.3,0.3,0.3
			c0.2,0,0.3-0.1,0.4-0.2c0.1-0.1,0-0.2-0.1-0.3l0.3-0.1l0.2,0.2c-0.1,0.1-0.3,0.1-0.3,0.3c0,0.2,0.1,0.3,0.2,0.4
			c0.2,0.1,0.4,0,0.5-0.2c0-0.1,0-0.3-0.1-0.3l0.3-0.1c0,0.1,0.1,0.1,0.1,0.2c-0.1,0-0.1,0.1-0.2,0.1C61,19,61,19,61,19.1
			c0,0.2,0.1,0.3,0.2,0.4c0.2,0.1,0.4,0,0.5-0.2c0-0.1,0.1-0.3,0-0.3l0.2-0.1L62,19c-0.1,0-0.1,0.1-0.2,0.1c0,0.1-0.1,0.1-0.1,0.2
			c0,0.2,0.1,0.3,0.2,0.4c0.2,0.1,0.4,0,0.5-0.2c0,0.2,0.1,0.3,0.2,0.4c0.1,0.1,0.4,0.1,0.5,0l0.1-0.1c0,0.1,0.1,0.1,0.1,0.2
			c0,0.1,0.1,0.1,0.2,0.1c0.2,0.1,0.4,0,0.5-0.1c0,0.1,0.1,0.2,0.2,0.3c-0.1,0-0.1,0-0.2,0.1c-0.1,0-0.1,0.1-0.1,0.2
			c0,0.2,0.1,0.3,0.2,0.3c0.2,0.1,0.3-0.1,0.4-0.2c0.1-0.1,0-0.3-0.1-0.3l0.3-0.1l0.1,0.2c-0.1,0.1-0.2,0.2-0.2,0.3
			c0,0.2,0.1,0.3,0.2,0.4c0.2,0.1,0.4,0,0.5-0.2c0,0.2,0.1,0.3,0.2,0.4c0.1,0.1,0.4,0,0.5,0c0,0.1,0.2,0.3,0.3,0.3
			c0.1,0.1,0.3,0,0.4,0l0.1,0.2c-0.1,0-0.2,0.2-0.2,0.3c0,0.2,0.1,0.3,0.2,0.4c0.2,0.1,0.4,0,0.5-0.1c0,0.2,0.1,0.3,0.2,0.4
			c0.1,0.1,0.4,0,0.5,0c0,0.1,0.1,0.2,0.2,0.2c-0.1,0.1-0.3,0.1-0.3,0.3c0,0.1,0,0.1,0,0.2c0,0.1,0.1,0.1,0.1,0.1
			c0.2,0.1,0.4,0,0.5-0.2c0,0.2,0.1,0.4,0.3,0.5c0.1,0,0.3,0,0.4-0.1l0.2,0.3c-0.2,0-0.3,0.2-0.3,0.4c0,0.1,0,0.1,0.1,0.2
			c0,0.1,0.1,0.1,0.2,0.1c0.2,0,0.4,0,0.4-0.2c0,0.1,0,0.3,0.1,0.4c0.1,0.1,0.3,0.2,0.5,0.1l0.1,0l0.1,0.2c-0.1,0.1-0.2,0.1-0.2,0.3
			c-0.1,0.3,0.1,0.4,0.3,0.5c0.1,0,0.3,0,0.4-0.1c0,0.1,0.1,0.3,0.2,0.3c-0.1,0-0.3,0.1-0.3,0.3c0,0.2,0.1,0.3,0.2,0.4
			c0.2,0,0.3,0,0.4-0.1c0,0.2,0.1,0.3,0.3,0.4c0.1,0.1,0.3,0,0.4,0l0.1,0.2c-0.2,0.1-0.3,0.3-0.2,0.6c0.1,0.2,0.4,0.3,0.6,0.2l0,0
			l0.1,0.2c-0.1,0.1-0.2,0.2-0.2,0.3c0,0.2,0.1,0.3,0.2,0.4c0.1,0.1,0.4,0.1,0.4,0l0.1,0.2c-0.2,0.1-0.2,0.2-0.3,0.4
			c0,0.2,0.1,0.3,0.2,0.4c0.1,0.1,0.3,0,0.4,0c0,0.2,0.2,0.3,0,0.3c-0.1,0.1-0.1,0.3-0.1,0.5c0.1,0.1,0.2,0.2,0.4,0.2l0.2-0.1
			c0,0.1,0.1,0.2,0.1,0.2c-0.1,0.1-0.3,0.2-0.3,0.4c0,0.2,0.1,0.3,0.3,0.4c0.1,0.1,0.3,0.1,0.4,0c0.2,0.2,0,0.2-0.1,0.4
			c0-0.1-0.1-0.3-0.2-0.3c-0.2-0.1-0.4,0-0.4,0.2c-0.1,0.2,0,0.4,0.2,0.4c0.2,0.1,0.4,0,0.4-0.1c-0.1,0.2,0.1,0.3,0.2,0.4
			c-0.1,0-0.2,0.1-0.3,0.2c-0.1,0.2,0.1,0.4,0.2,0.5c0.1,0,0.3,0,0.4-0.1c0,0.1,0.1,0.2,0.1,0.3c-0.1,0.1-0.2,0.1-0.3,0.3
			c-0.1,0.2,0.1,0.3,0.1,0.4c0.1,0.1,0.4,0.1,0.5,0l0.1,0.2c-0.1,0.1-0.2,0.2-0.2,0.3c-0.1,0.2,0.1,0.3,0.2,0.4
			c-0.2,0-0.2,0.1-0.3,0.2c0,0.1-0.1,0.3,0.1,0.4c0,0,0.1,0.1,0.1,0.1c0.1,0,0.1,0,0.2,0l0.2-0.1c0,0.1,0.1,0.2,0.1,0.3
			c-0.1,0.1-0.2,0.2-0.2,0.4c0,0.2,0.1,0.3,0.2,0.4c-0.1,0-0.2,0.1-0.2,0.1c-0.1,0.1-0.1,0.2-0.1,0.3c0,0.2,0.1,0.3,0.3,0.3
			c0.1,0.1,0.3,0,0.4,0c0,0.1,0.1,0.2,0.1,0.3c-0.1,0-0.1,0.1-0.2,0.1c0,0.1-0.1,0.1-0.1,0.2c0,0.2,0,0.3,0.2,0.4
			c-0.2,0-0.3,0.2-0.3,0.4c0.1,0.2,0.1,0.4,0.3,0.4c0.1,0.1,0.2,0,0.2,0l0.1,0.2L76,40.4c0-0.2-0.2-0.3-0.4-0.3
			c-0.1,0-0.1,0.1-0.2,0.1c-0.1,0.1-0.1,0.1-0.1,0.2c0,0.2,0.1,0.3,0.2,0.4c0.1,0.1,0.3,0,0.3-0.1l0,0.2h-0.4
			c-0.1,7.4-3.1,12.9-7.7,17.2c-4.6,4.2-10.5,6.8-18.3,6.4c-7.5-0.6-13.1-3.8-17.4-8.8c-3.9-4.8-6.3-11.4-5-19
			c1.8-9.5,9-16.8,18.5-19c1.7-0.4,3.5-0.6,5.5-0.6v-0.1c0.1,0.1,0.3,0.1,0.4,0.1c0.2-0.1,0.3-0.3,0.2-0.6
			C52,16.6,52.1,16.6,52.1,16.7z"/>
		<path class="st1" d="M54.5,16.7c-0.1,0-0.1,0.1-0.1,0.1c0.1-0.1-0.1-0.1,0-0.2C54.5,16.6,54.5,16.6,54.5,16.7z"/>
		<path class="st1" d="M57.6,16.8L57.6,16.8L57.6,16.8L57.6,16.8z"/>
		<path class="st1" d="M55.3,16.9c-0.1,0-0.1,0.1-0.2,0.1c0.1-0.1-0.2-0.2,0-0.3C55.2,16.8,55.3,16.9,55.3,16.9z"/>
		<path class="st1" d="M58.4,17.1C58.4,17.1,58.3,17.1,58.4,17.1L58.4,17.1z"/>
		<path class="st1" d="M59.2,17.3C59.2,17.3,59.1,17.3,59.2,17.3L59.2,17.3z"/>
		<path d="M53.9,17.5c0,0.2-0.1,0.3-0.2,0.3c-0.2,0-0.3-0.1-0.3-0.2c0-0.2,0.1-0.3,0.2-0.3C53.8,17.2,53.9,17.3,53.9,17.5z"/>
		<path d="M51.5,17.4c0,0.2-0.1,0.2-0.2,0.3h-0.1v-0.4C51.3,17.3,51.4,17.4,51.5,17.4z"/>
		<path class="st1" d="M59.9,17.6L59.9,17.6L59.9,17.6L59.9,17.6z"/>
		<path d="M54.6,17.7C54.7,17.7,54.7,17.7,54.6,17.7c0,0.1,0,0.2,0,0.2c0,0,0,0.1-0.1,0.1c0,0-0.1,0-0.1,0c-0.1,0-0.2-0.1-0.2-0.2
			c0-0.1,0-0.2,0.1-0.2C54.5,17.5,54.6,17.6,54.6,17.7z"/>
		<path d="M52.1,17.8c0,0.1-0.1,0.2-0.2,0.1c-0.1-0.1-0.1-0.2,0-0.2C52,17.6,52.1,17.7,52.1,17.8z"/>
		<path class="st1" d="M60.6,17.8L60.6,17.8L60.6,17.8L60.6,17.8z"/>
		<path d="M55.4,17.9c0,0.1-0.1,0.2-0.1,0.2c-0.1,0-0.2-0.1-0.2-0.1c0-0.1,0-0.2,0.1-0.2C55.3,17.8,55.3,17.9,55.4,17.9z"/>
		<path d="M52.8,18.1h-0.1c-0.1,0,0-0.1,0-0.1C52.8,17.9,52.9,18,52.8,18.1z"/>
		<path d="M56.1,18.3c-0.1,0.1-0.2,0.1-0.2,0c0-0.1,0-0.2,0.1-0.2C56,18.1,56.1,18.2,56.1,18.3z"/>
		<path d="M53.5,18.2L53.5,18.2L53.5,18.2L53.5,18.2L53.5,18.2z"/>
		<path d="M56.8,18.5c-0.1,0.1-0.2,0.1-0.2,0c-0.1-0.1,0-0.2,0.1-0.2C56.8,18.3,56.9,18.4,56.8,18.5z"/>
		<path d="M54.2,18.5L54.2,18.5L54.2,18.5L54.2,18.5z"/>
		<path d="M51.8,18.5L51.8,18.5L51.8,18.5L51.8,18.5z"/>
		<path d="M57.5,18.8h-0.2c-0.1-0.1,0-0.2,0-0.2C57.5,18.6,57.6,18.7,57.5,18.8z"/>
		<path d="M55,18.7L55,18.7L55,18.7L55,18.7z"/>
		<path d="M58.3,18.9c0,0.1-0.1,0.2-0.2,0.1c-0.1,0-0.1-0.2,0-0.2C58.2,18.8,58.2,18.9,58.3,18.9z"/>
		<path d="M55.7,19L55.7,19L55.7,19L55.7,19z"/>
		<path d="M59,19.2c0,0.1-0.1,0.2-0.2,0.1c-0.1,0-0.1-0.1,0-0.2C58.9,19,59,19.1,59,19.2z"/>
		<path d="M56.5,19.2L56.5,19.2L56.5,19.2L56.5,19.2z"/>
		<path d="M59.8,19.4c0,0.1-0.1,0.2-0.2,0.1c-0.1,0-0.1-0.2,0-0.2C59.7,19.3,59.7,19.3,59.8,19.4z"/>
		<path d="M60.5,19.7c-0.1,0.1-0.2,0.1-0.2,0c-0.1-0.1,0-0.2,0.1-0.2C60.5,19.5,60.6,19.6,60.5,19.7z"/>
		<path d="M61.3,19.9c0,0.1-0.1,0.2-0.2,0.1c0,0,0,0,0,0c0,0,0,0,0-0.1c0,0,0,0,0-0.1c0,0,0,0,0,0C61.2,19.7,61.3,19.8,61.3,19.9z"
			/>
		<path d="M62.1,20.1c0,0.1-0.1,0.2-0.1,0.2c-0.1,0-0.2-0.1-0.2-0.1c0-0.1,0-0.2,0.1-0.2C62,19.9,62,20,62.1,20.1z"/>
		<path d="M59.4,20.2L59.4,20.2L59.4,20.2L59.4,20.2z"/>
		<path d="M62.8,20.3c0,0.1-0.1,0.2-0.1,0.3c-0.2,0-0.2-0.1-0.3-0.2c0-0.1,0-0.2,0.1-0.3C62.7,20.1,62.8,20.2,62.8,20.3z"/>
		<path d="M63.6,20.5c0.1,0.1,0,0.3-0.1,0.3c-0.1,0.1-0.3,0-0.4-0.1c-0.1-0.1,0-0.3,0.1-0.3C63.4,20.3,63.6,20.4,63.6,20.5z"/>
		<path d="M60.2,20.4L60.2,20.4L60.2,20.4L60.2,20.4z"/>
		<path d="M60.9,20.6L60.9,20.6L60.9,20.6L60.9,20.6z"/>
		<path d="M61.7,20.9L61.7,20.9L61.7,20.9L61.7,20.9z"/>
		<path d="M62.4,21.1L62.4,21.1L62.4,21.1L62.4,21.1z"/>
		<path class="st1" d="M65.2,21.1L65.2,21.1L65.2,21.1L65.2,21.1L65.2,21.1z"/>
		<path d="M63.1,21.4L63.1,21.4l0-0.1L63.1,21.4L63.1,21.4z"/>
		<path d="M63.9,21.6l-0.1,0l0-0.1l0.1,0L63.9,21.6z"/>
		<path d="M64.8,21.7c0,0.1-0.1,0.1-0.1,0.2c-0.1,0-0.1-0.1-0.2-0.1c0-0.1,0.1-0.1,0.1-0.2C64.7,21.6,64.7,21.7,64.8,21.7z"/>
		<path d="M65.6,22c0,0.1,0,0.2-0.1,0.3c-0.2,0-0.2-0.1-0.3-0.1c0-0.2,0.1-0.2,0.1-0.3C65.4,21.8,65.5,21.9,65.6,22z"/>
		<path d="M66.4,22.2c0,0.2-0.1,0.3-0.2,0.3c-0.2,0-0.3-0.1-0.4-0.2c0-0.2,0.1-0.3,0.2-0.3C66.2,22,66.3,22.1,66.4,22.2z"/>
		<path d="M63.6,22.3L63.6,22.3L63.6,22.3L63.6,22.3z"/>
		<path d="M64.4,22.5L64.4,22.5L64.4,22.5L64.4,22.5z"/>
		<path class="st1" d="M68,22.6c0-0.1,0-0.1,0-0.1L68,22.6L68,22.6z"/>
		<path d="M65.1,22.8L65.1,22.8L65.1,22.8L65.1,22.8L65.1,22.8z"/>
		<path d="M65.9,23h-0.1c0,0,0,0,0-0.1c0,0,0,0,0-0.1C65.9,22.9,66,23,65.9,23z"/>
		<path d="M66.8,23.2c0,0.1-0.1,0.2-0.2,0.2c-0.1,0-0.2-0.1-0.2-0.2c0-0.1,0.1-0.1,0.2-0.2C66.7,23,66.8,23.1,66.8,23.2z"/>
		<path d="M67.6,23.3c0.1,0.1,0,0.3-0.1,0.3c-0.1,0-0.1,0-0.2,0c-0.1,0-0.1-0.1-0.1-0.1c-0.1-0.1,0-0.3,0.1-0.3c0.1,0,0.1,0,0.2,0
			C67.5,23.2,67.5,23.3,67.6,23.3L67.6,23.3z"/>
		<path d="M65.6,23.7L65.6,23.7L65.6,23.7L65.6,23.7z"/>
		<path class="st1" d="M69.3,23.7L69.3,23.7C69.2,23.8,69.2,23.7,69.3,23.7C69.3,23.7,69.3,23.7,69.3,23.7z"/>
		<path class="st1" d="M68.4,23.8L68.4,23.8L68.4,23.8L68.4,23.8L68.4,23.8z"/>
		<path d="M66.4,24L66.4,24L66.4,24L66.4,24z"/>
		<path d="M67.1,24.2L67.1,24.2l0-0.1L67.1,24.2L67.1,24.2z"/>
		<path d="M67.9,24.5h-0.2c0-0.1,0-0.2,0.1-0.2l0.2,0L67.9,24.5z"/>
		<path d="M68.8,24.6c0,0.2-0.1,0.3-0.3,0.3c-0.1,0-0.2-0.2-0.2-0.3c0-0.1,0.1-0.2,0.2-0.2C68.7,24.4,68.8,24.5,68.8,24.6z"/>
		<path class="st1" d="M69.9,24.7l-0.2,0.2l-0.1-0.2C69.7,24.7,69.8,24.5,69.9,24.7L69.9,24.7z"/>
		<path class="st1" d="M70.6,24.9c-0.1,0-0.1,0.1-0.1,0C70.5,24.9,70.5,24.9,70.6,24.9z"/>
		<path d="M67.6,25.1L67.6,25.1L67.6,25.1L67.6,25.1z"/>
		<path d="M68.4,25.4L68.4,25.4l-0.1-0.1l0.1,0L68.4,25.4z"/>
		<path d="M69.2,25.6c0,0.1-0.2,0.2-0.3,0.1c0-0.1,0-0.2,0.1-0.2C69.1,25.4,69.3,25.5,69.2,25.6z"/>
		<path d="M70.1,25.8c0.1,0.2-0.1,0.3-0.2,0.3c-0.2,0.1-0.3-0.1-0.4-0.2c-0.1-0.2,0.1-0.3,0.2-0.3C69.9,25.5,70,25.6,70.1,25.8z"/>
		<path class="st1" d="M71.1,25.9L71,26l-0.1-0.2C71,25.8,71.1,25.8,71.1,25.9z"/>
		<path d="M68.9,26.3L68.9,26.3L68.9,26.3L68.9,26.3z"/>
		<path d="M69.6,26.6h-0.1c0,0,0-0.1,0-0.1C69.6,26.5,69.7,26.5,69.6,26.6z"/>
		<path d="M70.5,26.7c0.1,0.1,0,0.3-0.2,0.3c-0.1,0-0.2-0.1-0.2-0.2c0-0.1,0-0.2,0.1-0.2C70.4,26.6,70.5,26.6,70.5,26.7z"/>
		<path class="st1" d="M67.4,22.3l-0.3,0.3c0-0.1,0-0.2-0.1-0.3c0.1,0,0.2,0,0.2-0.1L67.4,22.3z"/>
		<path class="st1" d="M66.1,21.1l-0.2,0.2c0-0.1,0-0.2-0.1-0.2C65.9,21.1,66,21.1,66.1,21.1L66.1,21.1z"/>
		<path class="st1" d="M68.7,23.5l-0.2,0.2c0-0.2,0-0.3-0.1-0.3c0.1,0,0.2,0,0.3-0.1L68.7,23.5z"/>
		<path class="st1" d="M72.3,27C72.3,27,72.3,27.1,72.3,27C72.2,27.1,72.3,27,72.3,27z"/>
		<path d="M69.4,27.3L69.4,27.3L69.4,27.3L69.4,27.3z"/>
		<path d="M70.1,27.5L70.1,27.5L70.1,27.5L70.1,27.5L70.1,27.5z"/>
		<path d="M71,27.7c0,0.1,0,0.2-0.1,0.2c-0.1,0-0.2,0-0.2-0.1c0-0.1,0-0.2,0.1-0.2C70.8,27.6,71,27.6,71,27.7z"/>
		<path d="M71.9,27.9c0,0.1,0,0.1,0,0.2c0,0.1-0.1,0.1-0.1,0.1c-0.1,0-0.1,0-0.2,0c-0.1,0-0.1,0-0.2-0.1c-0.1-0.1-0.1-0.3,0-0.4
			C71.5,27.6,71.9,27.7,71.9,27.9z"/>
		<path class="st1" d="M72.7,28.1L72.7,28.1C72.7,28,72.7,28,72.7,28.1L72.7,28.1z"/>
		<path d="M70.6,28.5L70.6,28.5L70.6,28.5L70.6,28.5z"/>
		<path d="M71.5,28.7c0,0.1,0,0.1-0.1,0.2c-0.1,0-0.1-0.1-0.2-0.1c0-0.1,0-0.1,0.1-0.2C71.3,28.6,71.4,28.6,71.5,28.7
			C71.4,28.6,71.5,28.6,71.5,28.7L71.5,28.7z"/>
		<path d="M72.4,28.9c0.1,0.2-0.1,0.3-0.2,0.3c-0.2,0.1-0.3-0.1-0.4-0.2c-0.1-0.2,0.1-0.3,0.2-0.3C72.2,28.6,72.3,28.7,72.4,28.9z"
			/>
		<path class="st1" d="M73.2,29L73.2,29c0-0.1,0.1-0.1,0.1-0.1L73.2,29z"/>
		<path d="M71.1,29.5L71.1,29.5L71.1,29.5L71.1,29.5z"/>
		<path d="M71.9,29.7h-0.2c-0.1-0.1,0-0.1,0.1-0.2C71.9,29.6,72,29.6,71.9,29.7z"/>
		<path d="M72.8,29.8c0.1,0.1,0,0.3-0.2,0.3c-0.1,0-0.1,0-0.2,0c-0.1,0-0.1-0.1-0.1-0.1c-0.1-0.1,0-0.3,0.1-0.3
			C72.6,29.6,72.8,29.7,72.8,29.8z"/>
		<path class="st1" d="M73.8,29.9c0,0-0.1,0.1-0.1,0.1l0-0.1C73.7,29.9,73.8,29.8,73.8,29.9z"/>
		<path d="M71.6,30.4L71.6,30.4L71.6,30.4L71.6,30.4z"/>
		<path d="M72.4,30.6C72.4,30.6,72.4,30.6,72.4,30.6c0,0.1,0,0.1,0,0.1c0,0,0,0-0.1,0c0,0,0,0-0.1,0c-0.1,0-0.1-0.2,0-0.2
			C72.4,30.5,72.4,30.6,72.4,30.6z"/>
		<path d="M73.3,30.7c0.1,0.2-0.1,0.3-0.1,0.4c-0.2,0.1-0.3-0.1-0.4-0.1c-0.1-0.2,0.1-0.3,0.1-0.4C73.1,30.5,73.3,30.7,73.3,30.7z"
			/>
		<path class="st1" d="M74.2,31C74.2,30.9,74.2,30.9,74.2,31C74.3,30.9,74.3,30.8,74.2,31L74.2,31z"/>
		<path d="M72.1,31.4L72.1,31.4L72.1,31.4L72.1,31.4z"/>
		<path d="M72.9,31.7h-0.2c0,0-0.1-0.2,0-0.2l0.1,0V31.7z"/>
		<path d="M73.8,31.7c0,0.1,0,0.3-0.1,0.3c-0.1,0.1-0.3,0.1-0.4,0c0-0.1-0.1-0.2-0.1-0.3c0.1-0.1,0.1-0.2,0.2-0.2
			C73.7,31.6,73.8,31.6,73.8,31.7z"/>
		<path class="st1" d="M74.8,31.8L74.8,31.8L74.8,31.8L74.8,31.8L74.8,31.8z"/>
		<path class="st1" d="M74.8,31.8C74.7,31.8,74.7,31.9,74.8,31.8C74.7,31.8,74.7,31.8,74.8,31.8z"/>
		<path d="M72.6,32.3L72.6,32.3L72.6,32.3L72.6,32.3z"/>
		<path d="M73.4,32.6h-0.2c0-0.1,0-0.2,0.1-0.2l0.2,0L73.4,32.6z"/>
		<path d="M73.1,33.3L73.1,33.3L73.1,33.3L73.1,33.3L73.1,33.3z"/>
		<path d="M74,33.4c0,0.1,0,0.2-0.1,0.2c-0.1,0-0.2,0-0.2-0.1c0-0.1,0-0.2,0.1-0.2C73.9,33.3,74,33.4,74,33.4z"/>
		<path class="st1" d="M75,33.7l-0.1-0.2l0.2-0.1l0.1,0.2L75,33.7z"/>
		<path d="M73.6,34.3L73.6,34.3l0-0.1L73.6,34.3L73.6,34.3z"/>
		<path d="M74.6,34.4c0,0.1,0,0.1,0,0.2c0,0.1-0.1,0.1-0.1,0.1c-0.1,0.1-0.3,0-0.3-0.1c-0.1-0.1,0-0.3,0.1-0.3
			C74.4,34.2,74.5,34.2,74.6,34.4z"/>
		<path class="st1" d="M75.6,34.5c-0.1,0-0.2,0.1-0.2,0C75.5,34.5,75.6,34.4,75.6,34.5z"/>
		<path d="M73.4,35L73.4,35L73.4,35L73.4,35z"/>
		<path d="M74.2,35.3H74c-0.1-0.1,0-0.2,0-0.2C74.2,35.1,74.3,35.2,74.2,35.3z"/>
		<path d="M75.1,35.3c0.1,0.2,0,0.4-0.2,0.4c-0.2,0.1-0.3-0.1-0.4-0.2c-0.1-0.2,0.1-0.3,0.2-0.4C74.9,35.1,75.1,35.1,75.1,35.3z"/>
		<path d="M73.9,35.9L73.9,35.9L73.9,35.9L73.9,35.9z"/>
		<path d="M74.8,36.1c0,0,0,0.1-0.1,0.1c0,0-0.1,0.1-0.1,0.1c-0.1,0-0.2-0.1-0.2-0.2c0-0.1,0.1-0.1,0.2-0.2
			C74.7,36,74.7,36,74.8,36.1z"/>
		<path class="st1" d="M75.8,36.2l-0.1,0l-0.1-0.2c0.1,0,0.1,0,0.2,0C75.8,36.1,75.9,36.2,75.8,36.2z"/>
		<path d="M74.4,36.9h-0.1c0,0,0-0.1,0-0.1C74.4,36.8,74.5,36.9,74.4,36.9z"/>
		<path d="M75.4,37c0.1,0.2,0,0.3-0.1,0.4c-0.1,0.1-0.3,0-0.4-0.1c0-0.1,0-0.1,0-0.2c0-0.1,0.1-0.1,0.1-0.2
			C75.1,36.8,75.3,36.9,75.4,37z"/>
		<path class="st1" d="M76.3,37.1c0,0-0.1,0.1-0.1,0C76.2,37.1,76.3,37.1,76.3,37.1L76.3,37.1z"/>
		<path d="M74.1,37.6L74.1,37.6L74.1,37.6L74.1,37.6z"/>
		<path d="M75,37.8c0,0.1,0,0.2-0.1,0.2c-0.1,0-0.2,0-0.2-0.1c0-0.1,0-0.2,0.1-0.2C74.9,37.6,75,37.7,75,37.8z"/>
		<path class="st1" d="M76,37.9c-0.1,0-0.1-0.1-0.1-0.2l0.2-0.1C76.1,37.8,76.1,37.9,76,37.9z"/>
		<path d="M74.7,38.6h-0.1c-0.1,0,0-0.1,0-0.1C74.7,38.5,74.7,38.5,74.7,38.6z"/>
		<path d="M75.6,38.7c0.1,0.2,0,0.3-0.1,0.4c0,0-0.1,0-0.1,0c0,0-0.1,0-0.1,0s-0.1,0-0.1-0.1c0,0,0-0.1-0.1-0.1
			c-0.1-0.2,0-0.3,0.1-0.4C75.4,38.5,75.6,38.5,75.6,38.7z"/>
		<path class="st1" d="M76.5,38.8C76.5,38.8,76.6,38.8,76.5,38.8L76.5,38.8z"/>
		<path d="M74.4,39.3L74.4,39.3L74.4,39.3L74.4,39.3z"/>
		<path d="M75.3,39.5c0,0.1-0.1,0.2-0.2,0.2c-0.1,0-0.2-0.1-0.2-0.2c0.1-0.1,0.1-0.2,0.2-0.2c0.1,0,0.1,0,0.2,0.1
			C75.3,39.4,75.3,39.5,75.3,39.5z"/>
		<path class="st1" d="M76.3,39.6c-0.1,0-0.1-0.1-0.1-0.1C76.2,39.5,76.3,39.3,76.3,39.6L76.3,39.6z"/>
		<path d="M75,40.3C75,40.3,74.9,40.4,75,40.3c-0.1,0-0.2,0-0.2,0c-0.1-0.1,0-0.2,0.1-0.2C75,40.1,75.1,40.2,75,40.3z"/>
		<path class="st1" d="M62.6,19.5l-0.1,0l0.1-0.1l0-0.1l0.2,0L62.6,19.5L62.6,19.5z"/>
		<path class="st2" d="M53.5,17.5L53.5,17.5L53.5,17.5L53.5,17.5z"/>
		<path class="st2" d="M51.8,17.7L51.8,17.7L51.8,17.7L51.8,17.7L51.8,17.7z"/>
		<path class="st2" d="M54.2,17.8L54.2,17.8L54.2,17.8L54.2,17.8z"/>
		<path class="st2" d="M52.6,18.1h-0.1c0,0,0-0.1,0-0.1C52.5,17.9,52.6,18,52.6,18.1z"/>
		<path class="st2" d="M55,18L55,18L55,18L55,18L55,18z"/>
		<path class="st2" d="M53.4,18.2c0,0.1-0.1,0.2-0.2,0.1c0,0,0,0,0-0.1s0,0,0-0.1s0,0,0-0.1c0,0,0,0,0-0.1
			C53.3,18.1,53.4,18.1,53.4,18.2z"/>
		<path class="st2" d="M55.7,18.3L55.7,18.3l0-0.1L55.7,18.3L55.7,18.3z"/>
		<path class="st2" d="M51.8,18.5c0,0.2-0.1,0.3-0.3,0.3c-0.1,0-0.2-0.2-0.2-0.3c0-0.1,0.1-0.2,0.2-0.2c0.1,0,0.1,0,0.2,0.1
			C51.7,18.3,51.8,18.4,51.8,18.5L51.8,18.5z"/>
		<path class="st2" d="M54.2,18.4c0.1,0.1-0.1,0.2-0.1,0.2c-0.1,0-0.2-0.1-0.2-0.1c0-0.2,0.1-0.2,0.1-0.2
			C54.1,18.2,54.1,18.3,54.2,18.4z"/>
		<path class="st2" d="M56.5,18.5L56.5,18.5l-0.1-0.1L56.5,18.5L56.5,18.5z"/>
		<path class="st2" d="M52.6,18.6c0.1,0.1-0.1,0.2-0.1,0.3L52.2,19l0.2,0.2l0.3-0.1c-0.1-0.1-0.1-0.3,0-0.4c0.1-0.1,0.3-0.2,0.5-0.1
			c0.2,0.1,0.2,0.3,0.1,0.5c-0.1,0-0.1,0.2-0.2,0.1l0.1,0.2l0.2-0.1c-0.1-0.1-0.1-0.3,0-0.4c0.1-0.1,0.3-0.2,0.4-0.1
			c0.2,0.1,0.2,0.2,0.3,0.3c0.1-0.1,0.3-0.2,0.5-0.1c0.1,0.1,0.2,0.2,0.3,0.3c0.1-0.1,0.4-0.2,0.5-0.1c0.1,0.1,0.2,0.1,0.2,0.3
			c0.1,0,0.2-0.1,0.4-0.1C56,19.4,55.8,19.2,56,19c0-0.1,0.1-0.1,0.2-0.1c0.1,0,0.1,0,0.2,0c0.1,0.1,0.2,0.3,0.1,0.4
			c-0.1,0.1-0.2,0.1-0.3,0.1c0.1,0.1,0.2,0.2,0.3,0.3c0.1-0.1,0.2-0.1,0.3-0.1c-0.1-0.1-0.2-0.2-0.1-0.4c0.1-0.2,0.3-0.3,0.5-0.2
			c0.1,0.1,0.2,0.3,0.1,0.4c-0.1,0.1-0.1,0.1-0.2,0.1l0.2,0.3c0.1,0,0.2-0.1,0.3-0.1c-0.1-0.1-0.1-0.3-0.1-0.4
			c0.1-0.1,0.3-0.2,0.4-0.1c0.1,0.1,0.2,0.3,0.1,0.4c-0.1,0.1-0.1,0.1-0.2,0.1l0.2,0.2l0.3-0.1c-0.1-0.1-0.1-0.3-0.1-0.4
			c0.1-0.1,0.3-0.2,0.4-0.1c0.1,0.1,0.2,0.3,0.1,0.4c0,0.1-0.2,0.1-0.3,0.2c0.1,0.1,0.2,0.2,0.2,0.3l0.3-0.1
			c-0.1-0.1-0.2-0.2-0.1-0.4c0-0.1,0.2-0.2,0.3-0.2c0.1,0,0.2,0,0.3,0.1c0.1,0.1,0,0.3-0.1,0.4l-0.2,0.1c0.1,0,0.2,0.1,0.2,0.2
			c0.1,0,0.3-0.1,0.4-0.1c-0.1,0-0.1-0.1-0.1-0.2c0-0.1,0-0.2,0-0.2c0.1-0.1,0.1-0.1,0.2-0.1c0.1,0,0.2,0,0.2,0
			c0.1,0.1,0.2,0.2,0.1,0.4c-0.1,0.1-0.2,0.2-0.3,0.1c0.1,0.1,0.2,0.2,0.3,0.3c0.1-0.1,0.4-0.1,0.5,0c0.1,0.1,0.2,0.2,0.2,0.3
			c0.1-0.1,0.4-0.1,0.5,0c0.1,0.1,0.2,0.2,0.2,0.3c0.1-0.1,0.4-0.1,0.5-0.1c0.1,0.1,0.2,0.2,0.2,0.4c0.1-0.1,0.3-0.3,0.5-0.1
			c0.1,0.1,0.3,0.3,0.1,0.5l-0.2,0.2l0.1,0.2c0,0,0.1,0,0.1,0c0,0,0.1,0,0.1,0c-0.1-0.1-0.1-0.3,0-0.4c0.1-0.1,0.3-0.2,0.4-0.1
			c0.1,0.1,0.2,0.3,0.1,0.4c-0.1,0.1-0.1,0.1-0.2,0.2l0.2,0.3c0.1-0.1,0.3-0.1,0.4-0.1c0.1,0.1,0.3,0.2,0.3,0.4
			c0.1-0.1,0.3-0.2,0.5-0.1c0,0,0.1,0.1,0.1,0.1c0,0,0.1,0.1,0.1,0.1c0,0,0,0.1,0,0.2c0,0.1,0,0.1,0,0.2l-0.2,0.2l0.1,0.2l0.2-0.1
			c-0.1-0.1-0.1-0.3-0.1-0.4c0.1-0.2,0.3-0.2,0.5-0.2c0.1,0,0.1,0.1,0.2,0.2c0,0.1,0,0.2,0,0.3c-0.1,0.1-0.2,0.2-0.3,0.2
			c0.1,0,0.1,0.4,0.3,0.2c0.2,0,0.3,0,0.4,0.1c0.1,0.1,0.1,0.2,0.1,0.3c0.1-0.1,0.3-0.2,0.5-0.1C67,24.6,67,24.8,67,25
			c-0.1,0.1-0.1,0.2-0.2,0.2c0,0.1,0.1,0.2,0.1,0.3c0.1-0.1,0.4-0.1,0.5,0.1c0.1,0.1,0.1,0.2,0.2,0.3c0.1-0.1,0.3-0.2,0.4-0.1
			c0.1,0,0.2,0.2,0.2,0.3c0,0.1,0,0.1,0,0.2c0,0.1-0.1,0.1-0.1,0.1L68,26.4c0.1,0.1,0.1,0.2,0.1,0.3c0.2-0.1,0.4,0,0.6,0.1
			c0.1,0.1,0.2,0.4,0,0.5l-0.2,0.1l0.1,0.2l0.3,0c-0.1-0.1-0.2-0.3-0.1-0.4c0.1-0.1,0.3-0.2,0.4-0.1c0.2,0.1,0.3,0.3,0.2,0.5
			c-0.1,0.1-0.1,0.2-0.3,0.1c0,0.1,0.1,0.1,0.1,0.2l0.1,0.2c0.1-0.1,0.3-0.2,0.4-0.1c0.2,0.1,0.2,0.3,0.2,0.4
			c-0.1,0.1-0.1,0.2-0.2,0.2l0.1,0.3c0.2-0.1,0.4-0.1,0.5,0c0.1,0.1,0.2,0.3,0.1,0.5c-0.1,0.1-0.1,0.1-0.2,0.2
			c0,0.1,0.1,0.2,0.1,0.3c0.1-0.1,0.3-0.1,0.4,0c0.1,0.1,0.2,0.2,0.2,0.4c0,0.2-0.2,0.3-0.3,0.4c0.1,0.1,0.1,0.1,0.1,0.2
			c0.2-0.1,0.4-0.1,0.5,0.1c0.1,0.1,0.2,0.3,0.1,0.4c0,0.1-0.1,0.2-0.2,0.2l0.1,0.3c0.1-0.1,0.3-0.1,0.4-0.1
			c0.1,0.1,0.2,0.2,0.2,0.3c0,0.2-0.1,0.3-0.2,0.4l0.1,0.3c0.1-0.1,0.2-0.1,0.4,0c0.1,0.1,0.2,0.2,0.2,0.3c0,0.2-0.1,0.3-0.3,0.4
			c0.1,0.1,0.1,0.2,0.1,0.3c0.1-0.1,0.3-0.1,0.4-0.1c0.1,0.1,0.2,0.2,0.2,0.3c0,0.1,0,0.2-0.1,0.3l-0.2,0.1c0.1,0.1,0.2,0.2,0.2,0.4
			c0.1-0.1,0.3-0.2,0.5-0.1c0.1,0.1,0.2,0.3,0.1,0.4c-0.1,0.1-0.3,0.2-0.5,0.1c-0.1-0.1-0.1-0.2-0.1-0.3l-0.2,0.2l0.1,0.2
			c0.2-0.1,0.4,0,0.5,0.1c0.1,0.1,0.1,0.3,0.1,0.5C73.2,36,73.1,36,73,36c0,0.1,0.1,0.2,0.1,0.3c0.1-0.1,0.3-0.1,0.4,0
			c0.1,0.1,0.2,0.3,0.1,0.4c-0.1,0.1-0.2,0.2-0.3,0.2c0.2,0.1,0.3,0.4,0.2,0.6l-0.2,0.2c0.1,0.1,0.1,0.2,0.1,0.3
			c0.1-0.1,0.4-0.1,0.5,0.1c0.1,0.1,0.1,0.3,0,0.4c-0.1,0.1-0.2,0.1-0.3,0.1c0.2,0.1,0.2,0.2,0.2,0.4c0,0.2-0.1,0.3-0.3,0.4
			c0.1,0.1,0.1,0.2,0.1,0.4c0.1-0.1,0.3-0.1,0.4-0.1c0.2,0.1,0.2,0.2,0.2,0.4c-0.1,0.2-0.3,0.2-0.4,0.2c-0.1-0.1-0.2-0.2-0.2-0.3
			l-0.2,0.2l0.1,0.2c0.1-0.1,0.3-0.1,0.4,0c0.2,0.1,0.2,0.3,0.2,0.5L74,40.9c0,5.8-2.1,10.3-5.2,14.1c-3.5,4-8,6.7-13.7,7.8
			c-1.3,0.2-2.5,0.3-3.8,0.3v0.3c-0.1,0-0.1-0.2-0.1-0.3c0.1-0.1,0-0.3,0.1-0.4L51,62.7c0.1,0.1,0.1,0.2,0,0.4
			c-0.1,0.2-0.3,0.2-0.4,0.2c-0.1-0.1-0.2-0.2-0.2-0.3c0-0.2,0.1-0.3,0.3-0.3c-0.1-0.1-0.1-0.2-0.3-0.1c0.1,0.2,0,0.3-0.1,0.5
			c-0.1,0.1-0.3,0.2-0.5,0.1c-0.1-0.1-0.2-0.2-0.2-0.3c-0.1,0.1-0.4,0.2-0.6,0.1c-0.1-0.1-0.2-0.1-0.2-0.3c-0.1,0.1-0.2,0.1-0.4,0.1
			c0.1,0.1,0.2,0.3,0.1,0.4c-0.1,0.1-0.3,0.1-0.4,0.1c-0.1-0.1-0.1-0.3-0.1-0.4c0.1-0.1,0.2-0.1,0.3-0.1c-0.1-0.1-0.2-0.2-0.3-0.3
			c-0.1,0.1-0.2,0.1-0.3,0.1c0.1,0.1,0.1,0.4-0.1,0.5c-0.1,0.1-0.4,0-0.5-0.1c-0.1-0.1,0-0.4,0.1-0.5l0.1-0.1l-0.2-0.2L47,62.2
			c0.1,0.1,0.1,0.2,0.1,0.4c-0.1,0.1-0.2,0.3-0.5,0.2c-0.1-0.1-0.3-0.2-0.2-0.5l0.2-0.2l-0.1-0.2L46.3,62c0,0.1,0.1,0.3,0,0.4
			c-0.1,0.1-0.3,0.2-0.4,0.1c-0.1,0-0.1-0.1-0.2-0.1c0-0.1-0.1-0.1-0.1-0.2c0-0.1,0.1-0.1,0-0.1c-0.1,0.1-0.2,0.3-0.4,0.3
			c-0.1,0-0.3,0-0.3-0.2c0,0-0.1-0.1-0.1-0.1c0,0,0-0.1,0-0.1c-0.1,0.1-0.3,0.3-0.5,0.2c-0.1-0.1-0.2-0.2-0.2-0.4
			c-0.1,0.1-0.3,0.3-0.5,0.2c-0.1-0.1-0.2-0.2-0.2-0.4c0,0.1-0.1,0.2-0.2,0.2c-0.2,0.1-0.4-0.1-0.5-0.2c-0.1-0.2,0.1-0.4,0.2-0.5
			l-0.1-0.2l-0.2,0.1c0.1,0.1,0.1,0.2,0,0.4c-0.1,0.2-0.3,0.2-0.4,0.2c-0.2-0.1-0.2-0.2-0.3-0.4c0-0.2,0.1-0.2,0.3-0.3L42,60.5
			l-0.2,0.1c0.1,0.1,0.1,0.2,0,0.4c-0.1,0.2-0.3,0.2-0.4,0.2c-0.1-0.1-0.2-0.2-0.2-0.3c0-0.2,0.1-0.3,0.3-0.3l-0.2-0.2L41,60.3
			c0.1,0.1,0.1,0.3,0.1,0.4c-0.1,0.1-0.3,0.2-0.4,0.1c-0.1-0.1-0.2-0.3-0.1-0.4c0-0.1,0.2-0.1,0.3-0.2c-0.1-0.1-0.2-0.2-0.2-0.3
			c-0.2,0.1-0.4,0.1-0.6,0c-0.1-0.1-0.2-0.1-0.1-0.3c-0.1,0-0.3,0.2-0.5,0.1c-0.2-0.1-0.2-0.2-0.2-0.4c-0.1,0.1-0.3,0.2-0.5,0.1
			c-0.1-0.1-0.2-0.3-0.1-0.5l0.2-0.2l-0.1-0.2l-0.2,0.1c0.1,0.1,0.1,0.3,0,0.5c-0.1,0.1-0.3,0.1-0.5,0c-0.1-0.1-0.1-0.3,0-0.5
			l0.2-0.1c-0.1-0.1-0.2-0.2-0.2-0.3c-0.1,0.1-0.4,0.1-0.5,0c-0.1-0.1-0.2-0.2-0.2-0.3C37,58,36.7,58.1,36.6,58
			c-0.1-0.1-0.2-0.3-0.1-0.5l0.2-0.2l-0.1-0.2l-0.3,0c0.1,0.1,0.2,0.3,0.1,0.4c-0.1,0.1-0.3,0.1-0.4,0.1c-0.1-0.1-0.1-0.3-0.1-0.4
			c0.1,0,0.2-0.1,0.3-0.1c-0.1-0.1-0.3-0.2-0.3-0.4c-0.1,0.1-0.3,0.2-0.5,0.1c-0.1,0-0.1-0.1-0.2-0.2c0-0.1-0.1-0.1-0.1-0.2
			c0-0.2,0.1-0.3,0.2-0.3l-0.1-0.2C35.2,56,35.1,56,35,56c0.1,0.1,0.2,0.2,0.1,0.4c-0.1,0.1-0.1,0.2-0.2,0.2c-0.2,0-0.2-0.1-0.3-0.1
			c0-0.1-0.1-0.2,0-0.3c0.1-0.1,0.1-0.2,0.2-0.2h0.1c-0.1-0.1-0.2-0.2-0.2-0.4c-0.1,0.1-0.3,0.1-0.5,0.1c-0.1-0.1-0.2-0.3-0.1-0.5
			l0.2-0.2c0-0.1-0.1-0.1-0.1-0.2c-0.1,0.1-0.4,0.1-0.5,0c-0.1-0.1-0.3-0.2-0.2-0.5c-0.1,0.1-0.3,0.2-0.5,0.1
			c-0.1-0.1-0.2-0.3-0.1-0.5c0.1-0.1,0.2-0.1,0.3-0.2c-0.1-0.1-0.2-0.2-0.2-0.3c-0.1,0.1-0.4,0.1-0.5,0c-0.1,0-0.1-0.1-0.2-0.2
			c0-0.1,0-0.2,0-0.3c0.1-0.1,0.1-0.1,0.2-0.2l-0.1-0.3c-0.2,0.1-0.4,0.1-0.5,0c-0.1-0.1-0.2-0.3-0.1-0.4c0.1-0.1,0.1-0.2,0.2-0.2
			l-0.1-0.3c-0.1,0.1-0.3,0.1-0.4,0c-0.1-0.1-0.2-0.2-0.2-0.3c0-0.2,0.1-0.3,0.3-0.4c0,0-0.1-0.1-0.1-0.1c0,0,0-0.1,0-0.1
			c-0.1,0.1-0.4,0.1-0.5,0c-0.1-0.1-0.2-0.3-0.1-0.5c0.1-0.1,0.1-0.1,0.2-0.2l-0.1-0.3c-0.1,0.1-0.3,0.1-0.4,0
			c-0.1-0.1-0.2-0.2-0.2-0.4c0-0.1,0.1-0.3,0.3-0.3c-0.1-0.1-0.1-0.2-0.1-0.3c-0.1,0.1-0.3,0.1-0.4,0c-0.2-0.1-0.2-0.3-0.1-0.5
			c0.1-0.1,0.1-0.1,0.2-0.2c-0.1-0.1-0.2-0.2-0.2-0.4c-0.1,0.1-0.4,0.2-0.5,0c-0.1-0.1-0.2-0.3-0.1-0.4c0-0.1,0.1-0.1,0.2-0.1
			c0.1,0,0.1,0,0.2,0c-0.2-0.1-0.2-0.2-0.3-0.4c0-0.2,0.1-0.3,0.3-0.4L29.5,46c-0.1,0.1-0.2,0.1-0.4,0.1C29.1,46,29,46,29,45.9
			s-0.1-0.1-0.1-0.2c0-0.1,0-0.3,0.2-0.3l0.2-0.1c-0.1-0.1-0.2-0.3-0.2-0.4C29,45,28.8,45.1,28.7,45c-0.1-0.1-0.3-0.3-0.2-0.4
			c0.1-0.1,0.3-0.2,0.4-0.1c0.1,0.1,0.1,0.2,0.2,0.3l0.2-0.2c0-0.1-0.1-0.1-0.1-0.2c-0.2,0-0.4,0.1-0.5-0.1
			c-0.1-0.1-0.2-0.3-0.1-0.5c0.1-0.1,0.2-0.2,0.3-0.2c-0.1-0.1-0.2-0.2-0.2-0.4c-0.1,0.1-0.2,0.2-0.4,0.1c-0.1,0-0.2-0.2-0.2-0.3
			c0-0.2,0.1-0.3,0.3-0.3c0.2,0.1,0.3,0.2,0.3,0.3l0.2-0.2c0-0.1-0.1-0.1-0.1-0.2c-0.1,0.1-0.4,0.1-0.5,0c-0.1-0.1-0.2-0.3-0.1-0.5
			c0,0,0.1-0.1,0.1-0.1s0.1,0,0.2-0.1c-0.1-0.1-0.2-0.3-0.2-0.5c0.1-0.1,0.2-0.2,0.3-0.3c-0.1-0.1-0.1-0.2-0.1-0.3
			c-0.1,0.1-0.4,0.1-0.5,0h0.2c0.1-6.1,2.2-10.7,5.5-14.5c3.9-4.3,9-7.1,15.7-7.6c0.5,0,1-0.1,1.5,0c0,0.1,0.2,0.1,0.3,0.1
			c0.1,0.1,0.2,0.2,0.2,0.3C51.8,19,52,19,52.1,19c-0.1,0-0.1-0.2-0.2-0.3c0-0.1,0-0.1,0.1-0.2c0-0.1,0.1-0.1,0.2-0.1
			C52.4,18.4,52.5,18.5,52.6,18.6z"/>
		<path class="st2" d="M55,18.6c0,0.2-0.1,0.2-0.2,0.3c-0.2,0-0.2-0.1-0.3-0.2c-0.1-0.2,0.1-0.2,0.1-0.3
			C54.8,18.4,54.9,18.6,55,18.6z"/>
		<path class="st2" d="M57.2,18.8h-0.1c-0.1-0.1,0-0.1,0-0.1C57.2,18.6,57.3,18.7,57.2,18.8z"/>
		<path class="st2" d="M55.7,18.9c0,0.2-0.1,0.2-0.2,0.3c-0.2,0-0.3-0.1-0.3-0.2c0-0.2,0.1-0.3,0.2-0.3
			C55.6,18.7,55.7,18.8,55.7,18.9z"/>
		<path class="st2" d="M58,19h-0.1c-0.1,0,0-0.1,0-0.1C58,18.8,58.1,18.9,58,19z"/>
		<path class="st2" d="M58.7,19.2h-0.1c-0.1,0,0-0.1,0-0.1C58.7,19.1,58.8,19.1,58.7,19.2z"/>
		<path class="st2" d="M59.5,19.5h-0.1c-0.1-0.1,0-0.1,0-0.1C59.5,19.3,59.5,19.4,59.5,19.5z"/>
		<path class="st2" d="M54.1,19.6c-0.1,0.1-0.1,0-0.2-0.1l0.2-0.1L54.1,19.6z"/>
		<path class="st2" d="M60.2,19.7h-0.1c0,0,0,0,0,0s0,0,0,0c0,0,0,0,0,0c0,0,0,0,0,0C60.2,19.6,60.3,19.6,60.2,19.7z"/>
		<path class="st2" d="M54.8,19.9c-0.1,0.1-0.1,0-0.2-0.1l0.1-0.1L54.8,19.9z"/>
		<path class="st2" d="M60.9,19.9L60.9,19.9l-0.1-0.1L60.9,19.9L60.9,19.9z"/>
		<path class="st2" d="M55.5,20.1L55.5,20.1c-0.1-0.1,0,0,0-0.1C55.5,20.1,55.6,20.1,55.5,20.1z"/>
		<path class="st2" d="M61.7,20.1L61.7,20.1L61.7,20.1L61.7,20.1L61.7,20.1z"/>
		<path class="st2" d="M56.3,20.4C56.2,20.4,56.2,20.3,56.3,20.4L56.3,20.4C56.2,20.3,56.3,20.3,56.3,20.4z"/>
		<path class="st2" d="M60.9,20.5c0,0.2-0.1,0.2-0.1,0.3c-0.2,0.1-0.4,0-0.4-0.2c0-0.2,0.1-0.2,0.2-0.3
			C60.7,20.3,60.9,20.4,60.9,20.5z"/>
		<path class="st2" d="M62.4,20.3L62.4,20.3L62.4,20.3L62.4,20.3z"/>
		<path class="st2" d="M57,20.6L57,20.6C56.9,20.6,57,20.6,57,20.6L57,20.6z"/>
		<path class="st2" d="M63.2,20.6L63.2,20.6L63.2,20.6L63.2,20.6z"/>
		<path class="st2" d="M61.7,20.7c0.1,0.2-0.1,0.3-0.2,0.3c-0.1,0-0.2,0-0.3-0.1c-0.1-0.2,0.1-0.3,0.2-0.3
			C61.5,20.6,61.6,20.6,61.7,20.7z"/>
		<path class="st2" d="M57.7,20.8L57.7,20.8C57.7,20.8,57.7,20.8,57.7,20.8L57.7,20.8z"/>
		<path class="st2" d="M63.9,20.8L63.9,20.8L63.9,20.8L63.9,20.8z"/>
		<path class="st2" d="M62.4,21c0,0.1-0.1,0.2-0.1,0.3c-0.1,0-0.2-0.1-0.3-0.1c0-0.1,0.1-0.2,0.1-0.3C62.2,20.8,62.3,20.9,62.4,21z"
			/>
		<path class="st2" d="M58.5,21.1L58.5,21.1L58.5,21.1C58.5,21,58.5,21,58.5,21.1C58.5,21,58.5,21.1,58.5,21.1L58.5,21.1z"/>
		<path class="st2" d="M63.1,21.3c0,0.1-0.1,0.2-0.2,0.2c-0.1,0-0.1-0.1-0.2-0.2c0-0.1,0.1-0.1,0.1-0.2c0,0,0.1,0,0.1,0.1
			C63,21.2,63.1,21.3,63.1,21.3L63.1,21.3z"/>
		<path class="st2" d="M59.2,21.3L59.2,21.3L59.2,21.3C59.2,21.2,59.3,21.3,59.2,21.3z"/>
		<path class="st2" d="M63.7,21.6h-0.2c0,0-0.1-0.2,0-0.2l0.1,0V21.6z"/>
		<path class="st2" d="M60,21.5C60,21.5,60,21.5,60,21.5C59.9,21.5,60,21.4,60,21.5z"/>
		<path class="st2" d="M60.7,21.8c-0.1-0.1,0.1-0.1,0.1-0.1l0.1,0.1H60.7z"/>
		<path class="st2" d="M64.4,21.8l-0.1,0l0-0.1L64.4,21.8L64.4,21.8z"/>
		<path class="st2" d="M61.5,22c-0.1,0-0.1,0.1-0.1,0c-0.1-0.1,0.1-0.1,0.1-0.2L61.5,22z"/>
		<path class="st2" d="M62.3,22.3c-0.1,0.1-0.2,0-0.2-0.1l0.2-0.2C62.2,22.1,62.3,22.2,62.3,22.3z"/>
		<path class="st2" d="M65.1,22L65.1,22L65.1,22L65.1,22z"/>
		<path class="st2" d="M64.4,22.4c0.1,0.2,0,0.2-0.1,0.3c-0.2,0.1-0.3,0-0.4-0.2c-0.1-0.2,0.1-0.2,0.1-0.3
			C64.2,22.2,64.3,22.3,64.4,22.4z"/>
		<path class="st2" d="M65.9,22.3L65.9,22.3L65.9,22.3L65.9,22.3z"/>
		<path class="st2" d="M65.1,22.7c0,0.1-0.1,0.2-0.2,0.3c-0.1,0-0.2-0.1-0.3-0.1c0-0.1,0.1-0.2,0.2-0.3C65,22.5,65,22.6,65.1,22.7z"
			/>
		<path class="st2" d="M65.7,22.9c0,0.1,0,0.1-0.1,0.2c-0.1,0-0.1-0.1-0.2-0.1c0-0.1,0-0.1,0.1-0.2C65.6,22.8,65.6,22.8,65.7,22.9
			C65.7,22.9,65.7,22.9,65.7,22.9L65.7,22.9z"/>
		<path class="st2" d="M66.4,23.2L66.4,23.2l-0.1-0.1L66.4,23.2L66.4,23.2z"/>
		<path class="st2" d="M63.4,23.4L63.4,23.4h0.1H63.4z"/>
		<path class="st2" d="M67.1,23.5L67.1,23.5L67.1,23.5L67.1,23.5z"/>
		<path class="st2" d="M64.3,23.7c0,0.1-0.2,0-0.2-0.1l0.1-0.1C64.3,23.6,64.3,23.6,64.3,23.7z"/>
		<path class="st2" d="M67.9,23.7L67.9,23.7L67.9,23.7L67.9,23.7z"/>
		<path class="st2" d="M66.4,23.9c0,0.1,0,0.1,0,0.2c0,0-0.1,0.1-0.1,0.1c-0.2,0.1-0.4,0-0.4-0.2c0-0.1,0.1-0.2,0.2-0.3
			C66.2,23.7,66.4,23.7,66.4,23.9z"/>
		<path class="st2" d="M67,24.2c0,0.1-0.1,0.2-0.2,0.2c-0.1,0-0.2-0.1-0.2-0.2c0-0.1,0.1-0.1,0.1-0.2C67,24,67,24.1,67,24.2z"/>
		<path class="st2" d="M67.7,24.5h-0.1c-0.1-0.1,0-0.1,0-0.1C67.7,24.3,67.7,24.4,67.7,24.5z"/>
		<path class="st2" d="M68.4,24.7L68.4,24.7L68.4,24.7L68.4,24.7z"/>
		<path class="st2" d="M65.5,24.8c-0.1,0-0.1,0.1-0.1,0L65.5,24.8L65.5,24.8z"/>
		<path class="st2" d="M67.6,25c0.1,0.2-0.1,0.3-0.2,0.3c-0.2,0.1-0.3-0.1-0.4-0.2c-0.1-0.2,0.1-0.3,0.2-0.3
			C67.5,24.8,67.6,24.9,67.6,25z"/>
		<path class="st2" d="M69.1,24.9L69.1,24.9L69.1,24.9L69.1,24.9z"/>
		<path class="st2" d="M66.2,25.2L66.1,25c0.1-0.1,0.1-0.1,0.1-0.1l0.1,0.2L66.2,25.2z"/>
		<path class="st2" d="M68.3,25.3c0,0.1-0.1,0.2-0.1,0.2c-0.1,0-0.2-0.1-0.2-0.1c0-0.1,0.1-0.2,0.1-0.2
			C68.2,25.2,68.2,25.2,68.3,25.3z"/>
		<path class="st2" d="M68.9,25.6l-0.1,0l0-0.1L68.9,25.6L68.9,25.6z"/>
		<path class="st2" d="M69.6,25.8L69.6,25.8L69.6,25.8L69.6,25.8z"/>
		<path class="st2" d="M66.7,26C66.7,26,66.7,26.1,66.7,26C66.7,26,66.7,26,66.7,26z"/>
		<path class="st2" d="M67.6,26.3c-0.1,0-0.2,0-0.2-0.1l0.1-0.2L67.6,26.3z"/>
		<path class="st2" d="M68.9,26.3c0,0,0,0.1,0,0.1c0,0-0.1,0.1-0.1,0.1c-0.2,0.1-0.4,0-0.4-0.2c0-0.1,0.1-0.2,0.2-0.3
			C68.7,26.1,68.9,26.1,68.9,26.3z"/>
		<path class="st2" d="M69.5,26.5c0,0.1,0,0.1-0.1,0.2c-0.1,0-0.1,0-0.2-0.1c0-0.1,0-0.1,0.1-0.2C69.4,26.4,69.4,26.5,69.5,26.5z"/>
		<path class="st2" d="M70.1,26.8L70.1,26.8L70.1,26.8L70.1,26.8L70.1,26.8z"/>
		<path class="st2" d="M70.9,27L70.9,27L70.9,27L70.9,27z"/>
		<path class="st2" d="M68,27.2C68,27.3,67.9,27.2,68,27.2C67.9,27.2,67.9,27.2,68,27.2z"/>
		<path class="st2" d="M70,27.4c0,0.1,0,0.2-0.1,0.3c-0.1,0-0.2,0-0.3-0.1c0-0.1,0.1-0.2,0.1-0.3C69.9,27.3,70,27.4,70,27.4z"/>
		<path class="st2" d="M70.6,27.8L70.6,27.8l-0.1-0.1L70.6,27.8L70.6,27.8z"/>
		<path class="st2" d="M71.4,28L71.4,28L71.4,28L71.4,28z"/>
		<path class="st2" d="M70.6,28.4c0,0.2,0,0.3-0.1,0.3c-0.1,0-0.3,0-0.3-0.1c0-0.2,0-0.3,0.1-0.3C70.4,28.2,70.5,28.3,70.6,28.4z"/>
		<path class="st2" d="M69.3,28.5c-0.1,0-0.1,0-0.2,0l-0.1-0.1l0.1-0.1L69.3,28.5z"/>
		<path class="st2" d="M71.2,28.7c-0.1,0-0.1,0-0.2,0c-0.1-0.1,0-0.1,0.1-0.2C71.2,28.6,71.3,28.7,71.2,28.7z"/>
		<path class="st2" d="M71.9,29L71.9,29L71.9,29L71.9,29z"/>
		<path class="st2" d="M71.1,29.3c0.1,0.2-0.1,0.3-0.1,0.3c-0.2,0.1-0.3,0-0.4-0.1c-0.1-0.2,0.1-0.3,0.1-0.3
			C70.9,29.1,71,29.2,71.1,29.3z"/>
		<path class="st2" d="M69.8,29.4c-0.1,0-0.1,0.1-0.2,0l0.1-0.1C69.8,29.3,69.8,29.4,69.8,29.4z"/>
		<path class="st2" d="M71.7,29.7c-0.1,0.1-0.1,0.1-0.2,0c-0.1-0.1,0-0.2,0.1-0.2C71.7,29.6,71.8,29.7,71.7,29.7z"/>
		<path class="st2" d="M72.4,29.9L72.4,29.9L72.4,29.9L72.4,29.9z"/>
		<path class="st2" d="M71.6,30.3c0.1,0.2,0,0.3-0.1,0.4c-0.1,0-0.2,0-0.2,0c-0.1,0-0.1-0.1-0.2-0.2c-0.1-0.2,0-0.3,0.1-0.4
			c0.1,0,0.2,0,0.2,0C71.5,30.2,71.6,30.2,71.6,30.3z"/>
		<path class="st2" d="M70.3,30.4C70.1,30.4,70.1,30.4,70.3,30.4L70.3,30.4z"/>
		<path class="st2" d="M72.2,30.7c0,0-0.1,0-0.1,0c0,0-0.1,0-0.1,0c0-0.1,0-0.2,0.1-0.2C72.2,30.5,72.3,30.6,72.2,30.7z"/>
		<path class="st2" d="M72.9,30.9L72.9,30.9L72.9,30.9L72.9,30.9z"/>
		<path class="st2" d="M72.2,31.4c0,0.2-0.1,0.3-0.3,0.3c-0.1,0-0.2-0.1-0.3-0.3c0-0.1,0.1-0.2,0.3-0.3C72,31.1,72.2,31.2,72.2,31.4
			z"/>
		<path class="st2" d="M70.7,31.4C70.6,31.3,70.7,31.3,70.7,31.4l0.1-0.1L70.7,31.4z"/>
		<path class="st2" d="M72.7,31.6h-0.2c0,0,0-0.2,0-0.2l0.1,0L72.7,31.6z"/>
		<path class="st2" d="M73.4,31.8L73.4,31.8L73.4,31.8L73.4,31.8z"/>
		<path class="st2" d="M72.6,32.2c0.1,0.1,0,0.3-0.1,0.4c-0.1,0.1-0.3,0-0.4-0.1c-0.1-0.2,0-0.3,0.1-0.4C72.4,32,72.6,32,72.6,32.2z
			"/>
		<path class="st2" d="M71.3,32.3c0,0-0.1,0.1-0.1,0H71.3L71.3,32.3z"/>
		<path class="st2" d="M73.2,32.6c-0.1,0.1-0.1,0.1-0.2,0c-0.1-0.1,0-0.1,0.1-0.2C73.2,32.4,73.2,32.5,73.2,32.6z"/>
		<path class="st2" d="M73.9,32.8L73.9,32.8L73.9,32.8L73.9,32.8z"/>
		<path class="st2" d="M73.1,33.2c0.1,0.2-0.1,0.2-0.1,0.3c-0.2,0.1-0.2-0.1-0.3-0.1c0-0.2,0.1-0.2,0.2-0.3C73,33,73,33.1,73.1,33.2
			z"/>
		<path class="st2" d="M71.8,33.2c0,0-0.1,0.1-0.2,0l0.1-0.1L71.8,33.2z"/>
		<path class="st2" d="M73.6,33.6L73.6,33.6l-0.1-0.1l0.1,0L73.6,33.6z"/>
		<path class="st2" d="M73.6,34.2c0,0.1-0.1,0.2-0.2,0.2c-0.1,0-0.2-0.1-0.2-0.2c0-0.1,0.1-0.1,0.1-0.2C73.5,34,73.5,34.1,73.6,34.2
			z"/>
		<path class="st2" d="M72.4,34.2c-0.1,0-0.3,0.1-0.2-0.1l0.1-0.1L72.4,34.2z"/>
		<path class="st2" d="M74.1,34.5L74.1,34.5L74.1,34.5L74.1,34.5z"/>
		<path class="st2" d="M74,35.2c0,0.1-0.1,0.1-0.2,0c0-0.1,0-0.2,0.1-0.2C73.9,35,74,35.1,74,35.2z"/>
		<path class="st2" d="M74.6,35.4L74.6,35.4L74.6,35.4L74.6,35.4z"/>
		<path class="st2" d="M73.9,35.9c0,0.2-0.1,0.3-0.3,0.3c-0.1,0-0.2-0.2-0.2-0.3c0-0.1,0-0.1,0.1-0.1c0,0,0.1-0.1,0.1-0.1
			c0.1,0,0.1,0,0.2,0.1C73.8,35.7,73.9,35.8,73.9,35.9L73.9,35.9z"/>
		<path class="st2" d="M72.6,35.9l-0.1,0C72.4,35.9,72.5,35.9,72.6,35.9C72.6,35.8,72.5,35.9,72.6,35.9z"/>
		<path class="st2" d="M74.4,36.2L74.4,36.2l0-0.1L74.4,36.2L74.4,36.2z"/>
		<path class="st2" d="M73.2,36.9L72.9,37c-0.1-0.2,0-0.2,0.1-0.3C73.1,36.8,73.1,36.9,73.2,36.9L73.2,36.9z"/>
		<path class="st2" d="M74.3,36.9c0,0.1-0.1,0.1-0.2,0.2C74,37,74,36.9,74,36.9c0-0.1,0.1-0.1,0.1-0.2
			C74.2,36.7,74.3,36.8,74.3,36.9z"/>
		<path class="st2" d="M74.9,37.1L74.9,37.1L74.9,37.1L74.9,37.1z"/>
		<path class="st2" d="M74.1,37.5c0,0.1,0,0.1,0,0.2c0,0.1-0.1,0.1-0.1,0.1c-0.1,0.1-0.3,0-0.4-0.1c-0.1-0.1,0-0.3,0.1-0.3
			C73.9,37.3,74.1,37.4,74.1,37.5z"/>
		<path class="st2" d="M72.8,37.6L72.8,37.6C72.7,37.5,72.8,37.6,72.8,37.6C72.8,37.5,72.8,37.6,72.8,37.6z"/>
		<path class="st2" d="M74.7,37.9L74.7,37.9l-0.1-0.1L74.7,37.9L74.7,37.9z"/>
		<path class="st2" d="M73.5,38.6c-0.1-0.1-0.4,0.2-0.4-0.1l0.2-0.1C73.3,38.5,73.4,38.6,73.5,38.6z"/>
		<path class="st2" d="M74.6,38.5c0,0.1-0.1,0.2-0.1,0.2c-0.1,0-0.1,0-0.2-0.1c0-0.1,0.1-0.1,0.1-0.2C74.5,38.4,74.5,38.5,74.6,38.5
			z"/>
		<path class="st2" d="M75.2,38.8L75.2,38.8L75.2,38.8L75.2,38.8z"/>
		<path class="st2" d="M74.4,39.2c0.1,0.2-0.1,0.3-0.2,0.3c-0.1,0-0.2,0-0.3-0.1c-0.1-0.2,0.1-0.3,0.2-0.3
			C74.2,39,74.3,39.1,74.4,39.2z"/>
		<path class="st2" d="M73.1,39.3l-0.1,0C72.9,39.2,73,39.3,73.1,39.3C73,39.2,73,39.3,73.1,39.3z"/>
		<path class="st2" d="M74.9,39.5L74.9,39.5L74.9,39.5L74.9,39.5L74.9,39.5z"/>
		<path class="st2" d="M74.7,40.3h-0.2c0,0-0.1-0.2,0-0.2l0.1,0L74.7,40.3z"/>
		<path class="st2" d="M74.6,40.9c0,0,0,0.1-0.2,0.1c-0.1,0-0.2,0-0.2-0.1C74.2,40.8,74.6,40.7,74.6,40.9z"/>
		<path class="st2" d="M27.6,41.2L27.6,41.2l0-0.1L27.6,41.2L27.6,41.2z"/>
		<path class="st2" d="M28.5,41.3c0,0.1,0,0.1,0,0.2c0,0.1-0.1,0.1-0.1,0.1c-0.1,0-0.3,0-0.3-0.2c0-0.1,0-0.3,0.2-0.3
			C28.3,41.1,28.5,41.2,28.5,41.3z"/>
		<path class="st2" d="M29.5,41.3C29.5,41.4,29.4,41.4,29.5,41.3L29.5,41.3C29.4,41.4,29.5,41.4,29.5,41.3z"/>
		<path class="st2" d="M27.3,41.9L27.3,41.9L27.3,41.9L27.3,41.9z"/>
		<path class="st2" d="M28.2,42.1c0,0,0,0.1-0.1,0.1c0,0-0.1,0.1-0.1,0.1c-0.1,0-0.2-0.1-0.2-0.2c0-0.1,0.1-0.1,0.2-0.2
			C28.1,41.9,28.2,42,28.2,42.1z"/>
		<path class="st2" d="M29.2,42.2L29,42.1c0-0.1,0.2,0,0.2-0.1C29.3,42.1,29.3,42.2,29.2,42.2z"/>
		<path class="st2" d="M27.9,42.9c-0.1,0-0.1,0-0.2,0c-0.1-0.1,0-0.1,0.1-0.2C27.9,42.8,27.9,42.8,27.9,42.9z"/>
		<path class="st2" d="M29.7,43.1L29.7,43.1L29.7,43.1L29.7,43.1z"/>
		<path class="st2" d="M28.8,43.2L28.8,43.2L28.8,43.2L28.8,43.2L28.8,43.2z"/>
		<path class="st2" d="M27.6,43.6L27.6,43.6L27.6,43.6L27.6,43.6L27.6,43.6z"/>
		<path class="st2" d="M28.5,43.7C28.5,43.7,28.5,43.8,28.5,43.7c0,0.1,0,0.2,0,0.2c0,0,0,0.1-0.1,0.1c0,0-0.1,0-0.1,0
			c-0.1,0-0.2-0.1-0.2-0.2c0-0.1,0-0.2,0.2-0.2C28.4,43.6,28.4,43.6,28.5,43.7z"/>
		<path class="st2" d="M29.5,43.8L29.5,43.8l-0.1-0.1C29.5,43.7,29.5,43.7,29.5,43.8z"/>
		<path class="st2" d="M27.3,44.3L27.3,44.3L27.3,44.3L27.3,44.3z"/>
		<path class="st2" d="M28.1,44.6H28c-0.1,0,0-0.1,0.1-0.2C28.1,44.4,28.2,44.5,28.1,44.6z"/>
		<path class="st2" d="M30,44.8L30,44.8L30,44.8L30,44.8L30,44.8z"/>
		<path class="st2" d="M29.1,44.8L29.1,44.8L29.1,44.8L29.1,44.8L29.1,44.8z"/>
		<path class="st2" d="M27.8,45.3L27.8,45.3L27.8,45.3L27.8,45.3L27.8,45.3z"/>
		<path class="st2" d="M28.8,45.5c0,0.1-0.1,0.2-0.2,0.2c-0.1,0-0.2-0.1-0.2-0.2c0,0,0-0.1,0.1-0.1c0,0,0.1-0.1,0.1-0.1
			C28.7,45.3,28.7,45.4,28.8,45.5z"/>
		<path class="st2" d="M29.8,45.5l-0.1,0.1l-0.1-0.1C29.6,45.5,29.8,45.3,29.8,45.5z"/>
		<path class="st2" d="M28.4,46.3h-0.1c0,0,0-0.1,0-0.1C28.4,46.1,28.4,46.2,28.4,46.3z"/>
		<path class="st2" d="M29.3,46.4c0,0.2-0.1,0.3-0.2,0.4c-0.2,0-0.3,0-0.4-0.2c0-0.2,0.1-0.3,0.2-0.4C29.2,46.2,29.3,46.2,29.3,46.4
			z"/>
		<path class="st2" d="M30.2,46.5C30.1,46.4,30.3,46.4,30.2,46.5L30.2,46.5z"/>
		<path class="st2" d="M28.1,46.9L28.1,46.9L28.1,46.9L28.1,46.9z"/>
		<path class="st2" d="M29,47.1c0,0.1-0.1,0.1-0.1,0.2c-0.1,0-0.2-0.1-0.2-0.1c0-0.1,0.1-0.1,0.1-0.2C28.9,47,28.9,47.1,29,47.1z"/>
		<path class="st2" d="M29.9,47.4c0-0.1,0-0.1-0.1-0.1c0,0-0.1-0.1-0.1-0.1c0.1,0.1,0.2,0,0.3,0l0.1,0.2L29.9,47.4z"/>
		<path class="st2" d="M29.7,47.1L29.7,47.1L29.7,47.1L29.7,47.1L29.7,47.1z"/>
		<path class="st2" d="M28.6,47.9L28.6,47.9L28.6,47.9L28.6,47.9L28.6,47.9z"/>
		<path class="st2" d="M29.5,48.1c0,0.1-0.1,0.2-0.1,0.3c-0.1,0-0.2-0.1-0.3-0.1c0-0.1,0.1-0.2,0.1-0.3C29.4,47.9,29.5,48,29.5,48.1
			z"/>
		<path class="st2" d="M30.4,48.3l-0.1-0.2c0.1,0,0.2-0.1,0.2,0.1L30.4,48.3z"/>
		<path class="st2" d="M28.4,48.6L28.4,48.6L28.4,48.6L28.4,48.6z"/>
		<path class="st2" d="M29.2,48.9H29c-0.1,0,0-0.1,0.1-0.1C29.2,48.8,29.2,48.9,29.2,48.9z"/>
		<path class="st2" d="M30.1,49c0,0.2-0.1,0.3-0.3,0.3c-0.1,0-0.2-0.1-0.2-0.3c0-0.1,0.1-0.2,0.2-0.2c0,0,0.1,0,0.1,0
			c0,0,0.1,0,0.1,0C30,48.9,30,48.9,30.1,49C30,49,30,49,30.1,49L30.1,49z"/>
		<path class="st2" d="M30.9,49.2l0-0.1c0.1,0,0.2-0.1,0.2,0L30.9,49.2z"/>
		<path class="st2" d="M28.8,49.6L28.8,49.6L28.8,49.6L28.8,49.6z"/>
		<path class="st2" d="M29.7,49.9c-0.1,0-0.1,0-0.2,0c-0.1-0.1,0-0.1,0.1-0.2C29.6,49.7,29.7,49.8,29.7,49.9z"/>
		<path class="st2" d="M30.6,49.9c0.1,0.2-0.1,0.3-0.1,0.3c-0.2,0.1-0.3,0-0.4-0.1c-0.1-0.2,0.1-0.3,0.1-0.4
			C30.4,49.7,30.5,49.9,30.6,49.9z"/>
		<path class="st2" d="M31.5,50.1L31.5,50.1c0-0.1,0-0.2,0.1-0.1L31.5,50.1z"/>
		<path class="st2" d="M29.4,50.5L29.4,50.5L29.4,50.5L29.4,50.5z"/>
		<path class="st2" d="M30.2,50.9H30c0,0,0-0.2,0-0.2l0.1,0L30.2,50.9z"/>
		<path class="st2" d="M31.1,50.9c0.1,0.2-0.1,0.3-0.2,0.3c-0.2,0.1-0.3-0.1-0.4-0.2c-0.1-0.2,0.1-0.3,0.2-0.3
			C30.9,50.7,31,50.8,31.1,50.9z"/>
		<path class="st2" d="M32,51.1L32,51.1C32.1,50.9,32.1,51.1,32,51.1z"/>
		<path class="st2" d="M29.8,51.5L29.8,51.5L29.8,51.5L29.8,51.5z"/>
		<path class="st2" d="M30.7,51.8h-0.2c0,0-0.1-0.2,0-0.2l0.1,0V51.8z"/>
		<path class="st2" d="M31.6,51.8c0.1,0.2-0.1,0.3-0.1,0.4c-0.2,0.1-0.3-0.1-0.4-0.1c-0.1-0.2,0.1-0.3,0.1-0.3
			C31.4,51.6,31.5,51.8,31.6,51.8z"/>
		<path class="st2" d="M32.5,52.1L32.5,52.1c0-0.1,0.1-0.2,0.1-0.1L32.5,52.1z"/>
		<path class="st2" d="M30.4,52.5L30.4,52.5L30.4,52.5L30.4,52.5z"/>
		<path class="st2" d="M31.2,52.7c-0.1,0-0.1,0-0.2,0c-0.1-0.1,0-0.1,0.1-0.2C31.2,52.6,31.2,52.7,31.2,52.7z"/>
		<path class="st2" d="M32.1,52.9c0,0.2-0.1,0.2-0.3,0.3c-0.1,0-0.2-0.1-0.2-0.3c0-0.1,0.1-0.2,0.2-0.2c0.1,0,0.1,0,0.2,0.1
			C32,52.8,32.1,52.8,32.1,52.9L32.1,52.9z"/>
		<path class="st2" d="M33.1,53l-0.1,0.1l-0.1-0.2C33,52.9,33,52.9,33.1,53z"/>
		<path class="st2" d="M30.9,53.4L30.9,53.4L30.9,53.4L30.9,53.4z"/>
		<path class="st2" d="M31.6,53.7h-0.1c-0.1,0,0-0.1,0-0.1c0,0,0,0,0,0C31.6,53.6,31.6,53.6,31.6,53.7
			C31.6,53.6,31.7,53.6,31.6,53.7C31.6,53.7,31.6,53.7,31.6,53.7L31.6,53.7z"/>
		<path class="st2" d="M32.5,53.9c0,0.1-0.1,0.2-0.2,0.2c-0.1,0-0.2-0.1-0.2-0.2c0,0,0-0.1,0.1-0.1c0,0,0.1-0.1,0.1-0.1
			c0.1,0,0.1,0,0.1,0.1S32.5,53.8,32.5,53.9L32.5,53.9z"/>
		<path class="st2" d="M33.4,54.2c0-0.1,0-0.2-0.1-0.3l0.2-0.1C33.7,54,33.5,54,33.4,54.2z"/>
		<path class="st2" d="M34.3,54.1c-0.1,0-0.1,0.1-0.1,0C34.2,54.2,34.3,54.1,34.3,54.1z"/>
		<path class="st2" d="M33.4,54.2L33.4,54.2L33.4,54.2L33.4,54.2L33.4,54.2z"/>
		<path class="st2" d="M31.4,54.4L31.4,54.4L31.4,54.4L31.4,54.4z"/>
		<path class="st2" d="M32.1,54.6L32.1,54.6L32.1,54.6L32.1,54.6L32.1,54.6z"/>
		<path class="st2" d="M33,54.8c0,0.1-0.1,0.1-0.1,0.2c-0.1,0-0.1-0.1-0.2-0.1c0-0.1,0.1-0.1,0.1-0.2C32.9,54.7,32.9,54.7,33,54.8z"
			/>
		<path class="st2" d="M33.8,55c0,0.2-0.1,0.2-0.1,0.3c-0.2,0.1-0.3,0-0.4-0.2c0-0.2,0.1-0.2,0.2-0.3C33.7,54.8,33.8,54.9,33.8,55z"
			/>
		<path class="st2" d="M34.7,55.2l-0.1-0.1c0.1-0.1,0.2-0.1,0.2,0L34.7,55.2z"/>
		<path class="st2" d="M35.5,55.3L35.5,55.3L35.5,55.3L35.5,55.3z"/>
		<path class="st2" d="M32.6,55.6L32.6,55.6L32.6,55.6L32.6,55.6z"/>
		<path class="st2" d="M33.4,55.9h-0.1c0,0,0-0.1,0-0.1C33.4,55.7,33.5,55.8,33.4,55.9z"/>
		<path class="st2" d="M34.3,56c0,0.1-0.1,0.2-0.1,0.2c-0.1,0-0.2,0-0.2-0.1c0-0.1,0-0.2,0.1-0.2C34.2,55.8,34.3,55.9,34.3,56z"/>
		<path class="st2" d="M36.1,56.3L36,56.4l0-0.1C36,56.3,36.1,56.2,36.1,56.3z"/>
		<path class="st2" d="M33.1,56.6L33.1,56.6L33.1,56.6L33.1,56.6z"/>
		<path class="st2" d="M36.8,56.6L36.8,56.6L36.8,56.6L36.8,56.6z"/>
		<path class="st2" d="M33.8,56.8L33.8,56.8L33.8,56.8L33.8,56.8L33.8,56.8z"/>
		<path class="st2" d="M34.7,57.1h-0.2c-0.1-0.1,0-0.2,0-0.2C34.6,56.9,34.7,57,34.7,57.1z"/>
		<path class="st2" d="M35.5,57.2c0.1,0.1,0,0.2-0.1,0.3c-0.1,0.1-0.2,0-0.3-0.1c-0.1-0.1,0-0.2,0.1-0.3
			C35.3,57,35.5,57.1,35.5,57.2z"/>
		<path class="st2" d="M37.2,57.7l-0.1-0.2c0.1,0,0.2,0,0.2,0.1L37.2,57.7z"/>
		<path class="st2" d="M34.4,57.7L34.4,57.7L34.4,57.7L34.4,57.7z"/>
		<path class="st2" d="M38,57.8L38,57.8C38,57.7,38,57.7,38,57.8L38,57.8z"/>
		<path class="st2" d="M35.1,58L35.1,58L35.1,58L35.1,58L35.1,58z"/>
		<path class="st2" d="M38.8,58L38.8,58L38.8,58L38.8,58z"/>
		<path class="st2" d="M35.9,58.2c-0.1,0-0.1,0-0.2,0c-0.1-0.1,0-0.1,0.1-0.2C35.9,58.1,36,58.2,35.9,58.2z"/>
		<path class="st2" d="M36.8,58.4c0,0.1-0.1,0.2-0.2,0.2c-0.1,0-0.2-0.1-0.2-0.2c0-0.1,0.1-0.2,0.2-0.2
			C36.7,58.2,36.7,58.3,36.8,58.4z"/>
		<path class="st2" d="M37.6,58.6c0,0.1,0,0.2-0.1,0.2c-0.2,0.1-0.4,0-0.4-0.2c0-0.1,0.1-0.2,0.2-0.3C37.4,58.4,37.6,58.5,37.6,58.6
			z"/>
		<path class="st2" d="M35.6,58.9L35.6,58.9L35.6,58.9L35.6,58.9z"/>
		<path class="st2" d="M39.4,59c-0.1,0-0.1,0-0.2,0.1l-0.1-0.2C39.2,58.9,39.3,58.9,39.4,59z"/>
		<path class="st2" d="M36.3,59.2L36.3,59.2L36.3,59.2L36.3,59.2z"/>
		<path class="st2" d="M40,59.1c0.1,0.1-0.1,0.1-0.1,0.1C39.9,59.2,40,59.1,40,59.1z"/>
		<path class="st2" d="M37.1,59.4L37.1,59.4l0-0.1L37.1,59.4L37.1,59.4z"/>
		<path class="st2" d="M40.8,59.4C40.8,59.4,40.8,59.5,40.8,59.4L40.8,59.4L40.8,59.4z"/>
		<path class="st2" d="M37.9,59.7h-0.2c0,0-0.1-0.2,0-0.2l0.1,0V59.7z"/>
		<path class="st2" d="M41.5,59.7L41.5,59.7L41.5,59.7L41.5,59.7z"/>
		<path class="st2" d="M38.7,59.8c0,0,0,0.1,0,0.1c0,0-0.1,0.1-0.1,0.1c-0.1,0-0.2,0-0.2-0.1c0-0.1,0-0.2,0.1-0.2
			C38.6,59.7,38.7,59.7,38.7,59.8z"/>
		<path class="st2" d="M42.2,59.8L42.2,59.8L42.2,59.8L42.2,59.8L42.2,59.8z"/>
		<path class="st2" d="M39.5,60c0.1,0.2-0.1,0.3-0.2,0.3c-0.1,0-0.2-0.1-0.2-0.2c0-0.1,0.1-0.2,0.2-0.3C39.4,59.8,39.4,59.9,39.5,60
			z"/>
		<path class="st2" d="M40.3,60.2c0.1,0.2-0.1,0.3-0.2,0.3c-0.2,0-0.3-0.1-0.4-0.2c-0.1-0.2,0.1-0.3,0.2-0.3
			C40.2,60,40.2,60.1,40.3,60.2z"/>
		<path class="st2" d="M37.6,60.4L37.6,60.4L37.6,60.4L37.6,60.4z"/>
		<path class="st2" d="M38.3,60.6L38.3,60.6L38.3,60.6L38.3,60.6z"/>
		<path class="st2" d="M39.1,60.8L39.1,60.8L39.1,60.8L39.1,60.8L39.1,60.8z"/>
		<path class="st2" d="M39.8,61.1L39.8,61.1L39.8,61l0.1,0L39.8,61.1z"/>
		<path class="st2" d="M43.6,61.2l-0.2,0.2c0.1-0.2-0.2-0.3,0.1-0.3C43.5,61,43.5,61.1,43.6,61.2z"/>
		<path class="st2" d="M40.6,61.3c-0.1,0-0.1,0-0.2,0c-0.1-0.1,0-0.1,0.1-0.2C40.6,61.2,40.7,61.3,40.6,61.3z"/>
		<path class="st2" d="M44.3,61.4l-0.2,0.2c0.1-0.1-0.1-0.3,0.1-0.3C44.3,61.3,44.3,61.4,44.3,61.4z"/>
		<path class="st2" d="M43.4,61.3L43.4,61.3L43.4,61.3L43.4,61.3L43.4,61.3z"/>
		<path class="st2" d="M41.4,61.6c-0.1,0.1-0.2,0.1-0.2,0c-0.1-0.1,0-0.2,0.1-0.2C41.4,61.4,41.5,61.5,41.4,61.6z"/>
		<path class="st2" d="M44.9,61.8c0.1-0.1-0.2-0.3,0.1-0.3C45.3,61.6,44.9,61.7,44.9,61.8z"/>
		<path class="st2" d="M47.5,61.5L47.5,61.5L47.5,61.5L47.5,61.5z"/>
		<path class="st2" d="M42.2,61.7c0,0.1,0,0.1-0.1,0.2c-0.1,0-0.1,0-0.2-0.1c0-0.1,0.1-0.1,0.1-0.2C42.1,61.6,42.1,61.7,42.2,61.7z"
			/>
		<path class="st2" d="M44.1,61.6L44.1,61.6L44.1,61.6L44.1,61.6L44.1,61.6z"/>
		<path class="st2" d="M45.8,61.9c-0.1,0-0.2,0.1-0.2,0.2c0.1-0.2-0.2-0.3,0.1-0.3C45.8,61.7,45.8,61.8,45.8,61.9z"/>
		<path class="st2" d="M48.2,61.8L48.2,61.8L48.2,61.8L48.2,61.8z"/>
		<path class="st2" d="M42.9,62c0,0.1-0.1,0.2-0.2,0.2c-0.1,0-0.2-0.1-0.2-0.2c0-0.1,0.1-0.1,0.1-0.2C42.8,61.8,42.9,61.9,42.9,62z"
			/>
		<path class="st2" d="M44.9,61.8L44.9,61.8L44.9,61.8L44.9,61.8L44.9,61.8z"/>
		<path class="st2" d="M49,62.1L49,62.1c-0.1,0-0.1-0.1-0.1-0.1C49,61.9,49,62,49,62.1z"/>
		<path class="st2" d="M43.7,62.2c0,0.1,0,0.2-0.1,0.2c-0.1,0-0.2,0-0.2-0.1c0-0.1,0-0.2,0.1-0.2C43.6,62,43.6,62.1,43.7,62.2z"/>
		<path class="st2" d="M49.8,62.3l-0.1,0.1l-0.1-0.2C49.7,62.2,49.7,62.3,49.8,62.3z"/>
		<path class="st2" d="M41.1,62.3L41.1,62.3L41.1,62.3L41.1,62.3z"/>
		<path class="st2" d="M44.5,62.5c0,0.1-0.1,0.2-0.2,0.2c-0.1,0-0.2-0.1-0.2-0.2c0-0.1,0.1-0.2,0.1-0.2
			C44.3,62.3,44.4,62.3,44.5,62.5z"/>
		<path class="st2" d="M41.8,62.5L41.8,62.5L41.8,62.5L41.8,62.5z"/>
		<path class="st2" d="M45.2,62.7c0,0.1-0.1,0.2-0.1,0.2c-0.1,0-0.2-0.1-0.2-0.1c0-0.1,0-0.2,0.1-0.2C45.1,62.5,45.1,62.6,45.2,62.7
			z"/>
		<path class="st2" d="M42.5,62.7L42.5,62.7L42.5,62.7L42.5,62.7z"/>
		<path class="st2" d="M45.9,62.9c0,0.1-0.1,0.2-0.2,0.2c-0.1,0-0.2-0.1-0.2-0.2c0-0.1,0.1-0.1,0.1-0.2
			C45.8,62.8,45.9,62.8,45.9,62.9z"/>
		<path class="st2" d="M49.2,63.1c0.1,0.1,0,0.3-0.1,0.3c-0.1,0-0.1,0-0.2,0c-0.1,0-0.1-0.1-0.1-0.1c-0.1-0.1,0-0.3,0.1-0.3
			c0.1,0,0.1,0,0.2,0C49.1,63,49.2,63,49.2,63.1L49.2,63.1z"/>
		<path class="st2" d="M43.3,63L43.3,63L43.3,63L43.3,63z"/>
		<path class="st2" d="M46.6,63.1c0,0.1,0,0.1-0.1,0.2c-0.1,0-0.1,0-0.2-0.1c0-0.1,0-0.1,0.1-0.2C46.5,63,46.6,63.1,46.6,63.1z"/>
		<path class="st2" d="M44,63.2L44,63.2L44,63.2L44,63.2z"/>
		<path class="st2" d="M49.9,63.4c0,0.1-0.1,0.2-0.1,0.2c-0.1,0-0.2,0-0.2-0.1c0-0.1,0-0.2,0.1-0.2C49.8,63.2,49.9,63.2,49.9,63.4z"
			/>
		<path class="st2" d="M47.3,63.5h-0.2c-0.1-0.1,0-0.2,0-0.2C47.3,63.3,47.4,63.4,47.3,63.5z"/>
		<path class="st2" d="M44.8,63.4L44.8,63.4L44.8,63.4L44.8,63.4z"/>
		<path class="st2" d="M50.6,63.7c0,0-0.1,0-0.1,0s-0.1,0-0.1,0c0,0,0,0,0-0.1c0,0,0,0,0-0.1c0,0,0,0,0-0.1c0,0,0,0,0.1,0
			C50.5,63.5,50.6,63.6,50.6,63.7z"/>
		<path class="st2" d="M48,63.7h-0.1c-0.1-0.1,0-0.1,0-0.1C48,63.6,48.1,63.6,48,63.7z"/>
		<path class="st2" d="M45.5,63.7L45.5,63.7L45.5,63.7L45.5,63.7z"/>
		<path class="st2" d="M51.2,63.9C51.2,63.9,51.2,63.9,51.2,63.9C51.1,63.9,51.1,63.9,51.2,63.9C51.1,63.9,51.1,63.9,51.2,63.9
			c-0.1-0.1-0.1-0.1-0.1-0.1C51.2,63.7,51.3,63.9,51.2,63.9z"/>
		<path class="st2" d="M48.7,63.8L48.7,63.8L48.7,63.8L48.7,63.8L48.7,63.8z"/>
		<path class="st2" d="M46.3,63.9L46.3,63.9L46.3,63.9L46.3,63.9z"/>
		<path class="st2" d="M49.5,64.1L49.5,64.1L49.5,64.1L49.5,64.1z"/>
		<path class="st2" d="M50.2,64.3L50.2,64.3L50.2,64.3L50.2,64.3z"/>
		<path d="M70.6,38.8h-4.4V31h5.6v-7.3H50.3v0.8c-1.7-0.6-3.6-0.9-5.7-0.9c-3,0-5.7,0.6-7.7,1.8v-1.7h-9.2V28h-1.4v-4.3H14.7v16.6
			h11.5v-4.9h1.4v4.9h7.8c-2,1.2-3.2,2.9-3.2,5c0,1,0.4,2,1.1,2.9h-1.1l0.6,2.7c0.7,3.1,4.6,5,10.5,5c4.5,0,7.9-1.2,9.9-3.3
			c-0.1,0.3-0.1,0.5-0.1,0.8l-0.3,2.5h6.1c0.8,1.2,2.2,2,3.8,2c2.5,0,4.6-2,4.6-4.5c0-1.6-0.8-2.9-2.1-3.7c1.5-1.6,3.6-3.1,6.3-4.5
			l1.2-0.6v-5.7H70.6z"/>
		<path class="st1" d="M51.7,41.1v2.2c-1.2-1.3-3.6-2.4-8-2.4c-5.2,0-9.1,1.4-9.1,4.5c0,2.1,3,3.9,8.1,3.9c1.8,0,3.9-0.2,5.1-1.1
			l0.1,0c0,2.6-2.2,3.5-4.4,3.5c-1.6,0-2.8-0.4-3.1-1.2v0h-5.2c0.5,2,3.7,3.2,8.3,3.2c4.8,0,9.7-1.6,9.7-6.4c0-0.9,0-2.4-1.1-3.7h13
			c-2.3,1.1-9,5.1-9.5,10.1h2.8c0-0.1,0-0.2,0-0.2c0-2.5,2.1-4.5,4.6-4.5c0.1,0,0.1,0,0.2,0c2.3-2.8,5.9-4.8,7.6-5.7v-2.2H51.7z
			 M43.8,47.3c-2,0-4-0.4-4-2.3c0-1.8,2.5-2.1,3.8-2.1c2.7,0,4,0.9,4,2.3C47.7,46.6,45.6,47.3,43.8,47.3L43.8,47.3z"/>
		<path class="st1" d="M62.8,50.3c-1.8,0-3.2,1.4-3.2,3.1c0,1.7,1.4,3.1,3.2,3.1c1.8,0,3.2-1.4,3.2-3.1C66,51.7,64.6,50.3,62.8,50.3
			z M62,53.3l-0.1,0.5h-0.8L61,54.6l-0.7,0l0.4-2.2l1.6,0l-0.1,0.5l-0.8,0l-0.1,0.5L62,53.3z M64.4,54.6l0.3-1.7h0l-0.7,1.7l-0.7,0
			l-0.2-1.7h0l-0.3,1.7h-0.6l0.4-2.2l1.1,0l0.1,1.5h0l0.6-1.5h1.1l-0.4,2.2L64.4,54.6z"/>
		<path class="st1" d="M52.4,25.8V28c-1.8-1.4-4.5-2.3-7.9-2.3c-5.3,0-9,2.1-9.9,5.1v-5.1h-5v4.3h-5.7v-4.3h-7.3v12.5h7.3v-4.9h5.7
			v4.9h5v-4.6c0.9,3.1,4.6,5.1,9.9,5.1c6,0,10-2.7,10-6.5c0-1.2-0.4-2.3-1.2-3.3h3.3v9.3h7.4V29h5.5v-3.2H52.4z M44.5,35.7
			c-1.6,0-3.9-0.6-3.9-3.4s2.4-3.4,3.9-3.4c1.6,0,3.4,0.8,3.4,3.5C48,35.1,46.1,35.7,44.5,35.7z"/>
	</g>
</g>
</svg>
