<svg width="32" height="33" viewBox="0 0 32 33" fill="none" xmlns="http://www.w3.org/2000/svg">
<path d="M21.6543 13.5557C22.1621 13.1748 22.6191 12.7178 22.9746 12.1846C22.5176 12.3877 21.9844 12.54 21.4512 12.5908C22.0098 12.2607 22.416 11.7529 22.6191 11.1182C22.1113 11.4229 21.5273 11.6514 20.9434 11.7783C20.4355 11.2451 19.75 10.9404 18.9883 10.9404C17.5156 10.9404 16.3223 12.1338 16.3223 13.6064C16.3223 13.8096 16.3477 14.0127 16.3984 14.2158C14.1895 14.0889 12.209 13.0225 10.8887 11.4229C10.6602 11.8037 10.5332 12.2607 10.5332 12.7686C10.5332 13.6826 10.9902 14.4951 11.7266 14.9775C11.2949 14.9521 10.8633 14.8506 10.5078 14.6475V14.6729C10.5078 15.9678 11.4219 17.0342 12.6406 17.2881C12.4375 17.3389 12.1836 17.3896 11.9551 17.3896C11.7773 17.3896 11.625 17.3643 11.4473 17.3389C11.7773 18.4053 12.7676 19.167 13.9355 19.1924C13.0215 19.9033 11.8789 20.335 10.6348 20.335C10.4062 20.335 10.2031 20.3096 10 20.2842C11.168 21.0459 12.5645 21.4775 14.0879 21.4775C18.9883 21.4775 21.6543 17.4404 21.6543 13.9111C21.6543 13.7842 21.6543 13.6826 21.6543 13.5557Z" fill="#0E0900"/>
<rect x="0.5" y="0.571289" width="31" height="31" rx="15.5" stroke="#0E0900"/>
</svg>
