<?xml version="1.0" encoding="utf-8"?>
<svg version="1.1" id="Layer_1" xmlns="http://www.w3.org/2000/svg" xmlns:xlink="http://www.w3.org/1999/xlink" x="0px" y="0px"
	 viewBox="0 0 1440 180" style="enable-background:new 0 0 1440 180;" xml:space="preserve">
<style type="text/css">
	.st0{clip-path:url(#SVGID_00000175298585927189108360000006600410923947254926_);}
</style>
<g>
	<defs>
		<rect id="SVGID_1_" x="0" y="-85" width="1440" height="265"/>
	</defs>
	<clipPath id="SVGID_00000160879953917604196280000007882086305197868726_">
		<use xlink:href="#SVGID_1_"  style="overflow:visible;"/>
	</clipPath>
	<g style="clip-path:url(#SVGID_00000160879953917604196280000007882086305197868726_);">
		<path fill="#0e0900" d="M0,0c3.4,2.5,6.7,5.2,10.3,7.5c2.6,1.7,5.3,3.1,8.8,1.2c0.8-0.4,3.3,2.3,5,3.7c1,0.9,1.6,2.5,2.7,2.8
			c4.2,1.4,8.6,2.5,12.8,3.7c0.8,0.2,2,0.6,2.1,1.1c1.5,5.7,7,5.6,10.8,7.9c4.3,2.6,7.8,6.7,11.3,10.5c2.1,2.4,3,6.2,5.4,8
			c3.1,2.4,7.2,4.6,11,4.8c6.3,0.3,12.2,0.4,18,3.4c4.5,2.3,9.4,2.9,15.1,2.1c6.6-0.9,13.7,1.3,20.4,2.8c3.6,0.8,6.8,3.1,10.2,4.6
			c0.1,0.1,0.3,0.3,0.4,0.2c7.4-1.7,7.5,5.5,11,8.8c2.6,2.5,6,5,9.4,5.7c5.2,1.1,10.5,1.4,16,1c5.4-0.4,11.1,0.4,16.7-0.6
			c3-0.5,6.2-0.2,9.3,0c2.3,0.2,4.5,0.8,6.8,1.1c7.1,0.8,14.1,1.6,22,2.5c1.4,0.6,4,1.7,6.4,2.9c2.3,1.2,4.5,2.7,6.7,4.1
			c1.1,0.7,2.1,1.9,3.2,2c4.1,0.3,8.2,0.1,10.4,4.6c0.1,0.2,0.7,0.4,0.9,0.3c5.1-3,10,0.6,14.7,1.2c3.8,0.5,7.7,4.5,10.5,7.8
			c2.1,2.5,7.1,6.7,10.5,6.3c3.8-0.4,7.6-0.8,11.3-1.2c0.5,0,1.2,0.1,1.5-0.1c5.2-4.1,11.8-4.8,17.5-7.5c7-3.3,11.8-3.6,18,1.3
			c2.1,1.6,4.9,2.3,7.5,3.2c4.9,1.6,9.9,2.7,14.8,4.4c4.4,1.5,8.7,2.5,13.3,3.1c4.8,0.7,11.1-1.1,15.3,3.8c3.5,4.1,8.3,4.3,13.3,3.5
			c6.3-1.1,12.4-1.3,18.1,2.7c1.7,1.2,5.1,1.4,7.2,0.6c7.5-2.5,14.5-0.8,22.1,0.2c4.9,0.7,10.4-1.4,15.6,1.4
			c0.9,0.5,2.7-0.9,4.2-1.4c5,6.3,12,4.6,18.5,4.2c3.9-0.2,7.7-1.5,11.6-2.1c1.4-0.2,3.3-0.3,4.3,0.4c4.5,3.3,9.6,2.9,14.7,2.6
			c0.5,0,1,0,1.4,0.2c7.9,3.9,16.5,2,24.8,2.9c3.2,0.3,7.1,0.5,9.3,2.3c3.1,2.5,5.4,0.3,8.1,0.3c3.3,0,6.8,0.9,9.9,0.2
			c5-1.2,9.8-3.4,14.7-5.1c1.4-0.5,2.8-1.1,4.2-1.1c6.1-0.3,12.1-0.5,18.2-0.6c1.1,0,2.4,0,3.4,0.5c8.5,4.4,17.1,2,25.4-0.1
			c5.1-1.3,9-2.2,14.6-0.1c5.5,2.1,12.8-0.4,19.3-1c2-0.2,4.5-1.8,6-1.1c7.8,3.3,15.2,0.8,22.7-0.7c1.8-0.4,3.3-2.2,5.1-2.7
			c5.9-1.6,12-2.5,17.9-4.4c10.3-3.3,21.6-2.1,31.3-8.4c3.8-2.5,9-2.7,13.5-4.1c6.1-1.8,12.6-2.9,18.1-6c2.3-1.3,6.2-2.5,7.3-7.1
			c0.7-2.8,6.1-6.5,9.1-6.3c11.6,0.9,21.5-3.9,31.9-7.2c1.1-0.4,2.7-0.5,3.1-1.3c2.9-5.2,9-6,13.1-9.5c1.2-1,3.3-1,5.1-1.2
			c4.6-0.7,9.6-0.5,13.8-2.3c5.5-2.4,10.7-0.3,16-0.6c3.3-0.2,6.7-0.1,10,0.1c4,0.3,8.3,0.2,11.9,1.7c5.6,2.3,9.2,0.5,13.2-3.2
			c3.7-3.5,10.2-2.9,13.7,1c3.1,3.5,5.7,4.1,10,1.9c2.1-1.1,5.2-0.2,7.9-0.2c1.3,0,3.4,0.5,3.8-0.2c3.9-5.8,9-2.9,13.9-2.4
			c2.4,0.3,5.1,0.5,7.1-0.4c5.3-2.6,9.7-1.5,15,0.6c4.6,1.9,10.1,1.5,15.1,2.2c2.3,0.3,4.5,1.1,6.8,1.2c2.1,0.1,4.3-0.3,6.5-0.4
			c2.4-0.1,5.1-0.9,7.1-0.1c4.7,1.9,9.3,1.9,14.2,1.2c2.9-0.4,5.9-0.1,8.8,0.3c3,0.4,5.8,1.5,8.8,1.8c5.9,0.6,11.9,1.3,17.8,1.2
			c4.2,0,8.6-0.6,12.5-2.1c4.9-1.9,8.9-1.4,12.8,1.7c4.7,3.6,11.2,3.4,16.7,1.4c4.3-1.6,9.4-1.2,14.1-1.5c0.6,0,1.3,1.7,2.1,2.4
			c1.9,1.9,3.6,4.8,6,5.5c9.4,2.9,19,5,28.4,7.6c2.4,0.7,5.1,1.6,6.6,3.3c4.9,5.5,10.8,5.7,17.4,4.9c2.1-0.3,4.8,0.7,6.4,2
			c6.5,5.3,14,6.2,21.8,5.6c5.6-0.5,11.2-1.9,16.9-2.5c3.8-0.4,7.7-0.1,12-0.1c1.3,2.5,2.7,5.1,7.1,4.3c2-0.4,4.4,3.1,6.9,4
			c4.1,1.5,8.5,2.2,12.7,3.4c2,0.5,4.5,0.7,5.8,2c3.9,4,9,3,13.6,4c4.8,1,9.2,0.3,14-0.4c6-0.8,12.4,0.7,18.4,1.9
			c6.6,1.4,12.9,4.6,19.4,5.2c6.4,0.5,10.6,3.9,15.5,6.9c3.4,2.1,7.6,3.6,11.9,1.7c6.6-2.9,13.4-2.3,20.2-1.1c0.7,0.1,1.6,0.5,2.1,1
			c1.4,1.4,2.6,4.1,4,4.2c4,0.2,8.1,0.9,11.9-1.8c2.6-1.9,6-2.6,9-3.8c-0.1,0.5-0.2,0.9-0.3,1.4c2.5,1.6,5,3.2,7.5,4.7
			c0,13.7,0,27.3,0,41c-480,0-960,0-1440,0C0,120,0,60,0,0z"/>
	</g>
</g>
</svg>
