<svg width="102" height="101" viewBox="0 0 102 101" fill="none" xmlns="http://www.w3.org/2000/svg">
<path d="M101 50.6188C100.973 78.2329 78.5655 100.597 50.9513 100.57C23.3371 100.543 0.973214 78.1355 1.00011 50.5214C1.027 22.9072 23.4345 0.543284 51.0487 0.570176C78.6628 0.597068 101.027 23.0046 101 50.6188Z" fill="#0E0900"/>
<path fill-rule="evenodd" clip-rule="evenodd" d="M50.9548 96.9985C76.5965 97.0235 97.4035 76.257 97.4284 50.6153C97.4534 24.9735 76.6869 4.16657 51.0452 4.1416C25.4035 4.11663 4.5965 24.8831 4.57153 50.5249C4.54656 76.1666 25.313 96.9736 50.9548 96.9985ZM50.9513 100.57C78.5655 100.597 100.973 78.2329 101 50.6188C101.027 23.0046 78.6628 0.597068 51.0487 0.570176C23.4345 0.543284 1.027 22.9072 1.00011 50.5214C0.973214 78.1355 23.3371 100.543 50.9513 100.57Z" fill="#FFBA04"/>
<path d="M75.9999 50.5939L38.4789 72.208L38.5211 28.9068L75.9999 50.5939Z" fill="black"/>
<path fill-rule="evenodd" clip-rule="evenodd" d="M75.9999 50.5939L38.5211 28.9068L38.4789 72.208L75.9999 50.5939ZM72.4285 50.5905L40.3038 32.0015L40.2676 69.1168L72.4285 50.5905Z" fill="white"/>
</svg>
